<?xml version="1.0" encoding="UTF-8" standalone="no"?>
<svg
   version="1.1"
   width="1297.6711"
   height="513.58185"
   id="svg147"
   sodipodi:docname="logo-yellow.svg"
   inkscape:version="1.4.2 (f4327f4, 2025-05-13)"
   xmlns:inkscape="http://www.inkscape.org/namespaces/inkscape"
   xmlns:sodipodi="http://sodipodi.sourceforge.net/DTD/sodipodi-0.dtd"
   xmlns="http://www.w3.org/2000/svg"
   xmlns:svg="http://www.w3.org/2000/svg">
  <defs
     id="defs147" />
  <sodipodi:namedview
     id="namedview147"
     pagecolor="#ffffff"
     bordercolor="#000000"
     borderopacity="0.25"
     inkscape:showpageshadow="2"
     inkscape:pageopacity="0.0"
     inkscape:pagecheckerboard="0"
     inkscape:deskcolor="#d1d1d1"
     inkscape:zoom="0.78808594"
     inkscape:cx="666.171"
     inkscape:cy="281.69517"
     inkscape:window-width="1278"
     inkscape:window-height="1000"
     inkscape:window-x="-7"
     inkscape:window-y="0"
     inkscape:window-maximized="0"
     inkscape:current-layer="svg147" />
  <path
     d="m 283.20558,0.01539814 c 1.41647,-0.005257 1.41647,-0.005257 2.86155,-0.01062012 3.09432,-0.0087399 6.18841,-0.0029961 9.28273,0.00378418 2.16516,-0.00134876 4.33032,-0.00329105 6.49547,-0.00579834 4.52636,-0.002940696 9.05264,0.0013128 13.579,0.01068116 5.78899,0.01140067 11.5778,0.0048244 17.36679,-0.00714493 4.46708,-0.007241286 8.93411,-0.00492036 13.40118,2.5558e-4 2.13415,0.00132986 4.26831,-2.8787e-4 6.40245,-0.0049591 2.98627,-0.0051033 5.97224,0.0026981 8.95848,0.01380157 0.87347,-0.0040485 1.74694,-0.00809692 2.64688,-0.01226807 8.46813,0.05805807 15.71937,1.38473383 22.1146,7.27105713 3.97967,5.3062228 4.13954,10.8472198 4.5625,17.3124998 0.12568,1.881387 0.12568,1.881387 0.25391,3.800781 0.0606,0.952617 0.12117,1.905235 0.18359,2.886719 3.931,1.840383 7.0292,2.249482 11.35401,2.247905 1.29286,0.0044 2.58572,0.0088 3.91777,0.0133 1.43568,-0.0052 2.87136,-0.01067 4.30704,-0.01626 1.53067,0.0014 3.06135,0.0036 4.59202,0.0067 4.22672,0.0059 8.45336,-7.8e-4 12.68008,-0.0094 4.59057,-0.0071 9.18114,-0.0026 13.77171,5.59e-4 8.05238,0.0039 16.10473,4.26e-4 24.1571,-0.0078 11.97392,-0.01214 23.94782,-0.01276 35.92175,-0.01071 18.90535,0.003 37.8107,-8.07e-4 56.71605,-0.0094 30.00281,-0.01355 60.0056,-0.0086 90.00841,0.0024 11.53697,0.0042 23.07395,0.0078 34.61092,0.0115 1.92271,6.25e-4 1.92271,6.25e-4 3.88427,0.0013 29.84782,0.0096 59.69563,0.01515 89.54345,0.01825 2.02371,2.11e-4 4.04743,4.3e-4 6.07114,6.49e-4 31.1748,0.0033 62.3496,0.0024 93.5244,-0.0079 0.67069,-2.21e-4 1.34139,-4.41e-4 2.0324,-6.69e-4 7.44044,-0.0025 14.88088,-0.005 22.32132,-0.0076 0.66843,-2.32e-4 1.33686,-4.63e-4 2.02554,-7.02e-4 3.37287,-0.0012 6.74574,-0.0023 10.11861,-0.0035 44.53558,-0.01552 89.0711,-0.01091 133.6067,0.01687 6.2842,0.0039 12.5685,0.0075 18.8527,0.011 1.2369,6.85e-4 2.4737,0.0014 3.748,0.0021 19.9391,0.0104 39.878,-9.08e-4 59.8171,-0.02062 20.0232,-0.01942 40.0463,-0.0176 60.0695,0.0063 11.9079,0.01353 23.8154,0.01011 35.7233,-0.01709 7.9436,-0.01651 15.887,-0.01149 23.8307,0.01137 4.533,0.01242 9.0654,0.01512 13.5984,-0.0084 4.1191,-0.02117 8.2373,-0.01505 12.3563,0.0134 1.4854,0.0054 2.9709,5.67e-4 4.4561,-0.01535 11.0602,-0.110563 11.0602,-0.110563 14.3585,2.089284 5.4044,6.270844 4.2437,14.135671 4.265,21.899359 0.01,2.144275 0.041,4.28759 0.072,6.431641 0.01,1.374994 0.012,2.749995 0.016,4.125 0.01,1.24185 0.019,2.483701 0.028,3.763183 -0.4001,3.887635 -1.2182,6.19894 -3.3565,9.463379 -3.8539,2.868872 -6.6276,3.375698 -11.3854,3.379008 -1.9498,0.01226 -1.9498,0.01226 -3.939,0.02477 -1.4436,-0.0061 -2.8872,-0.01243 -4.3308,-0.01902 -1.5391,0.0039 -3.0781,0.0092 -4.6171,0.01561 -4.2498,0.01394 -8.4995,0.0091 -12.7494,0.0014 -4.6155,-0.0051 -9.2311,0.0071 -13.8466,0.01713 -8.0961,0.01522 -16.1921,0.01929 -24.2882,0.01612 -12.0387,-0.0047 -24.0773,0.0078 -36.1159,0.02383 -20.2491,0.02646 -40.4982,0.03896 -60.7474,0.04356 -20.0554,0.0046 -40.1108,0.01538 -60.1662,0.03443 -1.246,0.0012 -2.492,0.0024 -3.7757,0.0036 -6.3275,0.006 -12.6549,0.01216 -18.9824,0.01834 -44.84242,0.04359 -89.68486,0.07329 -134.52732,0.09484 -10.87138,0.0052 -21.74276,0.01051 -32.61414,0.01599 -0.67424,3.4e-4 -1.34847,6.8e-4 -2.04314,0.001 -31.33895,0.01587 -62.67789,0.03957 -94.01683,0.06529 -2.03436,0.0017 -4.06871,0.0033 -6.10306,0.005 -13.48166,0.01104 -26.96331,0.02222 -40.44497,0.03349 -27.46483,0.02296 -54.92966,0.04506 -82.39449,0.06664 -1.89427,0.0015 -1.89427,0.0015 -3.82681,0.003 -84.3617,0.06628 -168.72341,0.112669 -253.08513,0.15597 -0.19336,0.903633 -0.38672,1.807266 -0.58594,2.738281 -0.39058,1.769239 -0.39058,1.769239 -0.78906,3.574219 -0.25523,1.171758 -0.51047,2.343516 -0.77344,3.550781 -1.37541,5.066316 -3.47807,6.621956 -7.85156,9.136716 -0.66,0.66 -1.32,1.32 -2,2 -2.03327,0.31104 -4.07779,0.5505 -6.125,0.75 -6.39621,0.93087 -10.52382,2.39753 -14.875,7.25 -1.64684,2.37603 -3.08609,4.79251 -4.48828,7.32031 -1.6219,2.87499 -3.39287,5.58425 -5.26172,8.30469 -0.57235,0.83789 -1.14469,1.67578 -1.73438,2.53906 -0.50015,0.60586 -1.00031,1.21172 -1.51562,1.83594 -0.66,0 -1.32,0 -2,0 -0.28875,0.92812 -0.5775,1.85625 -0.875,2.8125 -1.125,3.1875 -1.125,3.1875 -3.125,6.1875 0.88719,0.11158 1.77439,0.22317 2.68847,0.33813 3.29557,0.65868 5.41164,1.5734 8.2959,3.25171 0.92635,0.53214 1.85271,1.06429 2.80713,1.61255 0.9763,0.57259 1.95261,1.14517 2.9585,1.73511 2.0647,1.1908 4.12981,2.38089 6.19531,3.57031 1.02255,0.592 2.0451,1.18401 3.09863,1.79395 4.16376,2.39206 8.37081,4.70188 12.58106,7.01074 4.88005,2.68891 9.66742,5.45267 14.375,8.4375 6.32994,3.9722 12.90016,7.43639 19.5,10.9375 9.50264,5.0458 18.74583,10.36586 27.82617,16.13745 4.14613,2.63504 8.27085,4.98592 12.67383,7.17505 1.94674,1.26746 3.86447,2.58065 5.75,3.9375 0.94359,0.66902 1.88719,1.33805 2.85938,2.02734 2.36332,2.01192 3.06035,3.33517 4.39062,6.03516 0.61617,0.25652 1.23234,0.51305 1.86719,0.77734 3.4183,1.95958 4.60952,5.35383 6.25781,8.78516 0.34676,0.67869 0.69352,1.35738 1.05078,2.05664 4.59322,9.33603 5.12497,18.3021 5.13062,28.55713 0.008,1.29395 0.0166,2.5879 0.0252,3.92106 0.0218,3.52724 0.0307,7.05438 0.0358,10.58167 0.004,2.2118 0.01,4.42359 0.017,6.63539 0.0245,7.73961 0.0375,15.47916 0.0411,23.21881 0.004,7.17609 0.0335,14.35175 0.0754,21.52771 0.0349,6.19147 0.0502,12.38279 0.0508,18.57435 7.9e-4,3.68432 0.009,7.36821 0.038,11.05243 0.15895,21.72191 -0.46186,38.56661 -16.02728,55.12481 -8.57553,8.1875 -8.57553,8.1875 -13.5625,8.1875 0,0.66 0,1.32 0,2 -0.66,0 -1.32,0 -2,0 -0.014,1.77661 -0.014,1.77661 -0.0283,3.58911 -0.0402,4.44161 -0.10605,8.88255 -0.1792,13.32373 -0.028,1.91332 -0.0493,3.82676 -0.0635,5.74024 -0.10304,13.1589 -0.35544,24.98366 -9.02197,35.69067 -6.53541,6.34099 -14.9566,6.96031 -23.63672,6.875 -6.86837,-0.48935 -12.69491,-2.89221 -18.07031,-7.21875 -1.375,-2.25 -1.375,-2.25 -2,-4 -0.66,0 -1.32,0 -2,0 -4.28846,-9.23516 -4.76555,-18.00087 -5,-28 -0.99,0 -1.98,0 -3,0 0.0722,1.03254 0.14438,2.06508 0.21875,3.12891 0.58646,8.97602 0.91038,17.93819 0.96875,26.93359 0.0129,0.95012 0.0258,1.90024 0.0391,2.87915 0.0155,11.05273 -2.11114,21.83129 -10.15234,30.01929 -7.5284,5.99348 -15.68268,6.97581 -25.07422,6.03906 -7.69159,-1.77153 -13.86024,-6.05161 -19,-12 -1.25,-2.75391 -1.25,-2.75391 -2,-5 -0.34032,0.58008 -0.68063,1.16016 -1.03125,1.75781 -4.25384,6.85592 -8.69535,11.39876 -16.15625,14.61719 -10.04519,1.64675 -18.22384,1.49553 -26.8125,-4.375 -2.875,-2.5 -2.875,-2.5 -5,-5 -0.72188,-0.80438 -1.44375,-1.60875 -2.1875,-2.4375 -4.19157,-5.92601 -4.08514,-11.79571 -4.00782,-18.77344 0.004,-1.4522 0.004,-1.4522 0.009,-2.93374 0.0111,-3.07691 0.0362,-6.15351 0.0617,-9.23032 0.01,-2.09244 0.0192,-4.18489 0.0273,-6.27734 0.022,-5.116 0.0565,-10.23178 0.0977,-15.34766 -1.65,-0.33 -3.3,-0.66 -5,-1 -0.14695,1.03898 -0.29391,2.07797 -0.44531,3.14844 -1.3636,8.77227 -3.16725,15.58211 -8.55469,22.85156 -0.61875,0.92812 -1.2375,1.85625 -1.875,2.8125 -5.73102,5.89958 -12.55973,8.76305 -20.73828,9.52344 -11.10428,0.11725 -18.82966,-1.51792 -27.20703,-8.96875 -1.17969,-1.36719 -1.17969,-1.36719 -1.17969,-3.36719 -0.66,0 -1.32,0 -2,0 -7.20513,-11.76837 -7.24536,-24.05426 -6.87549,-37.50513 0.0971,-5.98503 -0.10344,-11.87149 -3.89404,-16.79175 -2.53196,-1.93333 -5.11293,-3.44243 -7.91797,-4.95312 -12.4843,-7.1686 -21.11875,-16.49939 -25.00005,-30.62149 -2.69016,-11.47065 -1.8927,-23.5993 -1.84975,-35.31274 0.0102,-3.67788 7e-4,-7.35573 -0.006,-11.03362 -0.007,-6.16859 0.002,-12.33698 0.0214,-18.50554 0.0218,-7.10126 0.0147,-14.20207 -0.007,-21.30332 -0.0182,-6.13466 -0.0207,-12.26919 -0.0102,-18.40387 0.006,-3.6477 0.007,-7.29519 -0.006,-10.94289 -0.0138,-4.06743 0.005,-8.13409 0.0276,-12.20148 -0.008,-1.18629 -0.0162,-2.37258 -0.0245,-3.59482 0.13488,-13.42144 4.72179,-26.077 13.65539,-36.23257 6.39729,-6.11775 13.83808,-10.59785 21.39893,-15.10791 2.75534,-1.64997 5.49465,-3.32491 8.23388,-5.00147 11.36358,-6.92349 22.84171,-13.52134 34.58179,-19.78442 6.35272,-3.40334 12.57706,-6.95958 18.73462,-10.70386 7.32318,-4.4468 14.68912,-8.80628 22.125,-13.0625 0.94432,-0.5485 1.88864,-1.09699 2.86157,-1.66211 4.88585,-2.77875 9.56754,-5.05623 14.97168,-6.63257 2.12015,-0.68858 4.01049,-1.60323 5.97925,-2.64282 -0.32871,-0.42668 -0.65742,-0.85336 -0.99609,-1.29297 -3.25982,-4.28458 -6.382,-8.65272 -9.44141,-13.08203 -0.58092,-0.83145 -0.58092,-0.83145 -1.17358,-1.67969 -1.81278,-2.60475 -3.5567,-5.22133 -5.20533,-7.93359 -2.85143,-4.80289 -2.85143,-4.80289 -7.26562,-7.96485 -2.30625,-0.50083 -4.57312,-0.78633 -6.91797,-1.04687 -7.47204,-1.53154 -13.04602,-4.03622 -18,-9.999997 -2.70323,-4.714726 -3.04401,-8.612505 -3,-14 -1.23652,0.0028 -2.47304,0.0055 -3.74703,0.0084 -29.35082,0.06497 -58.70163,0.11444 -88.0525,0.144816 -3.6124,0.0038 -7.22479,0.0076 -10.83719,0.0116 -0.71916,7.87e-4 -1.43833,0.0016 -2.17928,0.0024 -11.64542,0.01305 -23.29079,0.03671 -34.93619,0.06428 -11.94877,0.02805 -23.89753,0.04472 -35.84634,0.05081 -6.71166,0.0037 -13.42324,0.01276 -20.13487,0.03492 -6.31511,0.02034 -12.63007,0.02665 -18.94521,0.02213 -2.31957,8.27e-4 -4.63914,0.0068 -6.95868,0.01829 -3.16414,0.0149 -6.32774,0.01135 -9.49189,0.0031 -1.38036,0.01311 -1.38036,0.01311 -2.78861,0.02648 -5.11608,-0.03589 -8.6582204,-0.527822 -13.0822104,-3.387244 -6.12647003,-6.623209 -5.21537003,-13.161646 -5.25000003,-21.75 -0.0206,-1.263281 -0.0412,-2.526562 -0.0625,-3.828125 -0.0331,-7.865709 0.24849,-13.058612 4.82027003,-19.568991 3.83065,-2.847951 7.4464204,-2.404385 12.1023504,-2.358408 0.98544,-0.0061 1.97088,-0.01218 2.98618,-0.01845 3.31132,-0.01565 6.62192,-0.0028 9.93324,0.0098 2.37008,-0.0055 4.74016,-0.0127 7.11023,-0.02159 5.77442,-0.01737 11.54863,-0.01661 17.32306,-0.0084 6.72201,0.0084 13.4439,-0.0075 20.16588,-0.02531 11.99152,-0.03134 23.983,-0.04635 35.97456,-0.04969 1.07654,-3.06e-4 1.07654,-3.06e-4 2.17482,-6.18e-4 0.7186,-2.03e-4 1.43719,-4.06e-4 2.17757,-6.16e-4 10.19048,-0.0029 20.38096,-0.0097 30.57144,-0.02123 1.07568,-0.0012 1.07568,-0.0012 2.17309,-0.0024 11.94777,-0.01375 23.89553,-0.03553 35.84328,-0.06143 8.02924,-0.01684 16.05839,-0.02191 24.08765,-0.01841 4.98667,4.36e-4 9.97332,-0.0071 14.95998,-0.01668 2.31921,-0.0027 4.63843,-0.0019 6.95764,0.0025 3.15613,0.0056 6.31201,-8.69e-4 9.46812,-0.0104 0.92625,0.0047 1.8525,0.0093 2.80682,0.01413 0.84301,-0.005 1.68601,-0.01 2.55456,-0.01515 0.7288,-1.1e-4 1.45759,-2.2e-4 2.20847,-3.34e-4 2.24156,-0.149737 2.24156,-0.149737 4.91329,-2.250206 0.47565,-3.078721 0.47565,-3.078721 0.5,-6.625 0.71324,-12.466709 0.71324,-12.466709 5.38294,-17.3398636 7.80884,-6.65247945 16.04409,-7.34023464 26.00806,-7.29394526 z M 269.31471,15.274187 c -1.15821,3.474632 -1.14836,6.219619 -1.17701,9.886475 -0.007,0.69627 -0.0131,1.39254 -0.0199,2.109909 -0.0197,2.301988 -0.0314,4.60391 -0.0414,6.90596 -0.004,0.7866 -0.008,1.573201 -0.0123,2.383638 -0.0208,4.160774 -0.0351,8.321514 -0.0445,12.482329 -0.0111,4.298798 -0.0455,8.597081 -0.0852,12.895697 -0.0261,3.305408 -0.0345,6.610692 -0.0381,9.916194 -0.005,1.584858 -0.0165,3.16971 -0.035,4.754467 -0.0243,2.216906 -0.0234,4.432464 -0.0165,6.649462 -0.006,1.261141 -0.0117,2.522282 -0.0178,3.82164 0.28232,3.194267 0.28232,3.194267 1.92649,5.60434 3.90909,2.426545 7.49729,2.115963 12.01146,2.043991 0.95643,5.84e-4 1.91286,0.0012 2.89828,0.0018 3.16025,-0.0028 6.31956,-0.0339 9.47965,-0.06525 2.19146,-0.0075 4.38293,-0.01315 6.5744,-0.01715 5.76726,-0.01527 11.53411,-0.05456 17.30121,-0.09882 5.88515,-0.04092 11.77038,-0.05919 17.65564,-0.07934 11.54705,-0.0429 23.0938,-0.111166 34.64062,-0.195313 0,-0.66 0,-1.32 0,-2 0.99,-0.33 1.98,-0.66 3,-1 1.91206,-1.912063 1.12786,-5.361264 1.1294,-7.890625 0.002,-0.720304 0.003,-1.440608 0.005,-2.182739 0.004,-2.392236 0.002,-4.784399 -0.002,-7.176636 6.7e-4,-1.655274 0.002,-3.310547 0.003,-4.96582 0.002,-3.473643 -6.8e-4,-6.947259 -0.005,-10.420899 -0.006,-4.462606 -0.002,-8.925152 0.004,-13.387756 0.004,-3.419377 0.002,-6.83874 -1.3e-4,-10.258118 -6.7e-4,-1.645915 1.6e-4,-3.291831 0.002,-4.937744 0.002,-2.296381 -0.001,-4.592664 -0.007,-6.889038 -8e-4,-1.309365 -0.002,-2.61873 -0.002,-3.967773 0.20757,-2.813546 0.20757,-2.813546 -1.12698,-3.922852 -1.35341,-0.09531 -2.71174,-0.121887 -4.0685,-0.120254 -0.87645,-0.0014 -1.75289,-0.0027 -2.6559,-0.0042 -0.96888,0.0036 -1.93776,0.0072 -2.93601,0.01089 -1.01451,-1.46e-4 -2.02903,-2.92e-4 -3.07429,-4.43e-4 -3.37101,7e-4 -6.74196,0.0085 -10.11296,0.01631 -2.33028,0.0019 -4.66055,0.0033 -6.99083,0.0043 -6.14689,0.0038 -12.29375,0.01366 -18.44063,0.0247 -6.26698,0.01021 -12.53397,0.01479 -18.80096,0.01984 -12.30665,0.01074 -24.61329,0.02782 -36.91992,0.04883 z m -255.000005,33 c 0,6.6 0,13.2 0,20 1.92734,1.927343 4.81943,1.122962 7.38446,1.129081 1.39053,-0.0044 1.39053,-0.0044 2.80916,-0.0088 0.97682,8.54e-4 1.95365,0.0017 2.96007,0.0026 3.29978,0.0017 6.59951,-0.0039 9.89929,-0.0093 2.3548,-2.81e-4 4.70959,-1.24e-4 7.06439,4.43e-4 6.41503,2.88e-4 12.83005,-0.0056 19.24508,-0.01257 6.01818,-0.0061 12.03637,-0.0066 18.05456,-0.0077 11.92342,-0.0022 23.846835,-0.0089 35.770255,-0.0183 11.58528,-0.0092 23.17057,-0.01625 34.75586,-0.02051 1.07044,-3.94e-4 1.07044,-3.94e-4 2.16251,-7.96e-4 3.57992,-0.0013 7.15984,-0.0026 10.73977,-0.0038 29.7182,-0.01037 59.4364,-0.02807 89.1546,-0.05032 2.98514,-5.970297 1,-13.325005 1,-20 -119.295,-0.495 -119.295,-0.495 -241.000005,-1 z M 1279.3432,47.488062 c -8.0639,0.846051 -16.0711,0.931248 -24.1722,0.92479 -1.5187,0.0025 -3.0374,0.0053 -4.5561,0.0086 -4.1655,0.0077 -8.331,0.0093 -12.4964,0.0099 -4.5346,0.0017 -9.0692,0.0092 -13.6038,0.01598 -7.9446,0.01104 -15.8891,0.01842 -23.8337,0.0234 -11.8133,0.0074 -23.6266,0.0205 -35.4399,0.03475 -19.8725,0.0238 -39.745,0.04301 -59.6174,0.0596 -19.6765,0.01644 -39.3529,0.03492 -59.0294,0.05613 -1.2233,0.0013 -2.4467,0.0026 -3.7072,0.004 -6.213,0.0067 -12.4259,0.01344 -18.6389,0.02019 -44.00718,0.04776 -88.0144,0.09095 -132.02162,0.131441 -10.66415,0.0098 -21.32829,0.01964 -31.99244,0.02954 -0.9921,9.2e-4 -0.9921,9.2e-4 -2.00425,0.0019 -31.42038,0.02918 -62.84075,0.06109 -94.26113,0.0936 -1.3178,0.0014 -2.63561,0.0027 -3.99334,0.0041 -13.23393,0.01369 -26.46786,0.02741 -39.70178,0.04117 -26.95907,0.02803 -53.91815,0.05577 -80.87722,0.08335 -1.23953,0.0013 -2.47907,0.0025 -3.75617,0.0038 -82.77517,0.08466 -165.55036,0.162753 -248.32554,0.239825 0.0116,1.024805 0.0232,2.049609 0.0352,3.105469 0.009,1.360675 0.0185,2.721352 0.0273,4.082031 0.008,0.673535 0.0168,1.34707 0.0254,2.041016 0.0187,3.824718 -0.32847,6.974371 -1.08789,10.771484 444.015,0.495 444.015,0.495 896.99998,1 1.9595,-15.359691 1.9595,-15.359691 -1,-23 -1.1648,-0.01797 -1.1648,-0.01797 -2.9715,0.213875 z M 303.31471,109.27419 c 1.90442,11.42657 10.17896,19.81688 18,28 0.66,-0.33 1.32,-0.66 2,-1 0,-0.66 0,-1.32 0,-2 0.66,0 1.32,0 2,0 1.71196,-2.34425 3.3085,-4.6862 4.875,-7.125 0.43441,-0.66516 0.86882,-1.33031 1.3164,-2.01563 0.86312,-1.32189 1.72222,-2.64642 2.57715,-3.97363 1.13044,-1.73107 2.30775,-3.4313 3.48926,-5.12793 1.97734,-2.81134 1.97734,-2.81134 2.74219,-6.75781 -12.21,0 -24.42,0 -37,0 z m -8.73047,54.11328 c -3.7031,2.13692 -7.49003,4.016 -11.33203,5.88672 -6.62237,3.24609 -12.80196,6.89726 -18.9375,11 -1.87025,1.23639 -3.74529,2.46555 -5.625,3.6875 -0.81727,0.54012 -1.63453,1.08023 -2.47657,1.63672 -2.37886,1.37538 -4.65978,2.48519 -7.17187,3.57422 -4.75007,2.06106 -9.22504,4.48741 -13.72656,7.03906 -1.5,0.84245 -3,1.68489 -4.5,2.52734 -1.11726,0.63035 -1.11726,0.63035 -2.25708,1.27344 -2.20516,1.24048 -4.41634,2.46944 -6.62964,3.69531 -5.1608,2.86406 -10.29629,5.77171 -15.42578,8.69141 -0.92748,0.52465 -1.85496,1.0493 -2.81055,1.58984 -0.89397,0.50918 -1.78793,1.01836 -2.70898,1.54297 -0.80156,0.4552 -1.60312,0.9104 -2.42896,1.3794 -2.20904,1.34454 -4.26845,2.68597 -6.23901,4.36279 0,0.66 0,1.32 0,2 -1.485,0.495 -1.485,0.495 -3,1 -2.52093,2.27044 -2.52093,2.27044 -5,5 -0.70125,0.68062 -1.4025,1.36125 -2.125,2.0625 -5.71411,8.95211 -5.29721,20.04421 -5.20312,30.29297 0.003,1.48754 0.004,2.97508 0.004,4.46263 0.005,3.96954 0.0286,7.93873 0.0575,11.90816 0.0221,3.30035 0.0343,6.60071 0.0467,9.9011 0.0383,10.00027 0.11445,20.00004 0.20022,30 0.0251,3.04081 0.0463,6.08165 0.0674,9.12249 0.0517,7.3988 0.12311,14.79699 0.21864,22.19537 0.0305,2.43776 0.0568,4.87557 0.0789,7.31342 0.033,3.3647 0.085,6.72856 0.14294,10.09292 0.006,0.97062 0.0128,1.94124 0.0194,2.94127 0.16155,7.38956 1.81745,13.31433 5.67979,19.70717 0.59812,0.99 1.19625,1.98 1.8125,3 0.66,0 1.32,0 2,0 0.18562,0.5775 0.37125,1.155 0.5625,1.75 2.08343,3.26102 5.10089,4.51271 8.4375,6.25 1.60497,0.91525 3.20913,1.83194 4.8125,2.75 2.91922,1.77423 2.91922,1.77423 6.1875,2.25 0,0.66 0,1.32 0,2 0.66,0 1.32,0 2,0 0,0.66 0,1.32 0,2 0.66,0 1.32,0 2,0 2.7411,7.83172 4.31135,15.05786 4.6875,23.3125 0.047,0.79728 0.0941,1.59457 0.14257,2.41601 0.17412,3.39381 0.25392,6.0195 -0.83007,9.27149 -0.65189,9.77833 3.13381,16.55388 9.5,23.875 3.78182,2.92014 7.80899,3.00108 12.45312,2.80469 5.42174,-1.20947 8.63093,-4.45114 12.04688,-8.67969 3.19879,-5.26254 3.72148,-10.89036 4.47265,-16.91406 0.5161,-3.02015 1.08204,-5.38488 2.52735,-8.08594 1.875,-1.19922 1.875,-1.19922 4,-2 0.63937,-0.31582 1.27875,-0.63164 1.9375,-0.95703 6.84643,-2.83972 12.25943,-1.61523 19.0625,0.95703 4.58874,2.62214 6.55283,6.00379 8,11 0.33462,3.36734 0.23362,6.68405 0.11718,10.0625 -0.0331,1.95051 -0.0656,3.90103 -0.0976,5.85156 -0.0683,3.04819 -0.14482,6.09585 -0.23194,9.14356 -0.0787,2.95996 -0.12619,5.91923 -0.17041,8.87988 -0.0352,0.90436 -0.0704,1.80871 -0.10672,2.74048 -0.075,6.39169 1.16509,9.55918 5.48954,14.32202 4.62595,1.54198 9.16911,1.50292 14,1 4.45313,-2.41211 6.06714,-5.40619 8,-10 0.3778,-3.49244 0.3778,-3.49244 0.22265,-7.19141 -0.009,-0.66773 -0.018,-1.33546 -0.0272,-2.02342 -0.0298,-2.11644 -0.0796,-4.2317 -0.13292,-6.34767 -0.048,-2.11946 -0.0913,-4.23861 -0.1222,-6.35838 -0.0286,-1.92054 -0.0737,-3.84081 -0.11974,-5.76101 0.17771,-3.2861 0.79185,-5.36888 2.17944,-8.31811 0.33,-0.99 0.66,-1.98 1,-3 2,-0.625 2,-0.625 4,-1 0.33,-0.33 0.66,-0.66 1,-1 2.14453,0.26953 2.14453,0.26953 4.8125,0.8125 0.8727,0.17144 1.74539,0.34289 2.64453,0.51953 5.82002,1.52876 5.82002,1.52876 7.57886,4.30029 2.71064,7.98996 2.36276,16.17287 2.24903,24.5166 -0.34105,9.2244 -0.34105,9.2244 3.57055,17.21827 4.04613,3.95197 8.29972,3.90667 13.69141,3.85937 3.13493,-0.28953 5.07725,-1.16747 7.45312,-3.22656 0,-0.66 0,-1.32 0,-2 0.47438,-0.37125 0.94875,-0.7425 1.4375,-1.125 3.88188,-4.65825 2.65833,-13.41316 2.55469,-19.23047 -0.0175,-1.77408 -0.0344,-3.54817 -0.0508,-5.32227 -0.031,-2.76506 -0.0667,-5.52982 -0.11279,-8.29467 -0.0424,-2.69023 -0.0658,-5.38009 -0.0864,-8.07056 -0.0279,-1.23607 -0.0279,-1.23607 -0.0564,-2.49712 -0.0209,-4.67764 0.31815,-7.63618 3.31424,-11.45991 1.9375,-1.73047 1.9375,-1.73047 4,-3.1875 0.68062,-0.48856 1.36125,-0.97711 2.0625,-1.48047 4.42114,-3.03953 6.50525,-3.79239 11.9375,-3.33203 3.3125,1.5 3.3125,1.5 6,3 0.66,0 1.32,0 2,0 0,0.66 0,1.32 0,2 0.66,0 1.32,0 2,0 1.37833,5.57027 1.33663,11.25633 1.51758,16.96289 0.19675,4.69597 0.70725,8.61715 2.48242,13.03711 0.66,0 1.32,0 2,0 0.33,0.99 0.66,1.98 1,3 4.31131,2.871 9.01876,2.50217 14,2 4.21828,-1.55893 5.99241,-4.00311 8.15085,-7.90137 1.57235,-3.88599 1.39144,-7.80314 1.35306,-11.94238 0.0141,-1.39189 0.0141,-1.39189 0.0285,-2.81189 0.0285,-2.94835 0.0317,-5.89589 0.03,-8.84436 0.004,-2.94836 0.0132,-5.89613 0.0408,-8.84436 0.0167,-1.82862 0.0197,-3.65743 0.007,-5.48609 0.0561,-6.82338 1.1985,-11.56374 5.70225,-16.91955 2.78846,-2.33453 5.41815,-3.68071 8.6875,-5.25 8.5438,-5.24752 13.03423,-11.46301 16,-21 0.75394,-3.9173 1.12917,-7.63456 1.14717,-11.62077 0.007,-1.09461 0.0143,-2.18922 0.0217,-3.31699 0.003,-1.18609 0.005,-2.37219 0.008,-3.59422 0.007,-1.26093 0.0131,-2.52185 0.0199,-3.82099 0.0209,-4.16749 0.0314,-8.33497 0.0414,-12.5025 0.004,-1.44044 0.008,-2.88088 0.0123,-4.32131 0.019,-6.76978 0.0333,-13.53954 0.0416,-20.30933 0.01,-7.78906 0.0361,-15.57783 0.0765,-23.36679 0.0302,-6.03761 0.045,-12.07515 0.0483,-18.11283 0.002,-3.59812 0.0112,-7.19593 0.0365,-10.79397 0.0278,-4.02063 0.0234,-8.04063 0.0165,-12.06135 0.0128,-1.17597 0.0256,-2.35194 0.0388,-3.56355 -0.064,-10.21754 -2.17268,-19.17358 -9.39941,-26.70915 -6.31397,-5.70596 -13.12248,-10.20016 -20.81641,-13.80859 -2.15869,-1.03338 -4.18111,-2.17711 -6.23047,-3.41016 -2.91764,-1.9288 -2.91764,-1.9288 -6.0625,-1.6875 0,-0.66 0,-1.32 0,-2 -0.66644,-0.36352 -1.33289,-0.72703 -2.01953,-1.10156 -7.24023,-3.94922 -7.24023,-3.94922 -14.48047,-7.89844 -1.35158,-0.7367 -1.35158,-0.7367 -2.73047,-1.48828 -1.89962,-1.03689 -3.798,-2.07607 -5.69531,-3.11719 -5.50848,-3.0328 -5.50848,-3.0328 -11.13672,-5.83203 -2.72774,-1.45092 -5.01447,-3.05068 -7.5,-4.875 -4.87999,-3.49732 -9.95996,-5.9445 -15.45703,-8.32813 -2.81998,-1.28617 -5.34366,-2.73611 -7.98047,-4.35937 -1.2327,-0.70059 -2.46867,-1.39542 -3.70703,-2.08594 -0.9981,-0.55687 -0.9981,-0.55687 -2.01636,-1.125 -0.68941,-0.38414 -1.37881,-0.76828 -2.08911,-1.16406 -4.36828,-2.436 -8.68914,-4.88254 -12.875,-7.625 -3.13137,-1.89064 -4.73622,-2.74455 -8.3125,-3 -0.69481,-0.0735 -1.38961,-0.14695 -2.10547,-0.22266 -10.85623,-0.67312 -19.62274,4.89683 -28.625,10.33594 z"
     fill="#070a0a"
     id="path1" />
  <path
     d="m 275.47877,207.83278 c 1.21816,0.43506 1.21816,0.43506 2.46093,0.8789 0.81727,0.28747 1.63453,0.57493 2.47657,0.8711 0.62648,0.22816 1.25296,0.45633 1.89843,0.6914 0,0.66 0,1.32 0,2 2.64,0.66 5.28,1.32 8,2 0,0.66 0,1.32 0,2 1.05188,0.15469 1.05188,0.15469 2.125,0.3125 3.26638,0.78109 5.92219,2.10809 8.875,3.6875 0,0.66 0,1.32 0,2 0.99,0 1.98,0 3,0 0,0.99 0,1.98 0,3 1.33032,-0.46406 1.33032,-0.46406 2.6875,-0.9375 7.94073,-2.23886 16.36089,-2.88026 24.3125,-0.53515 3.97815,0.94015 6.1696,0.96854 9.75391,-1.17188 1.39025,-1.07314 1.39025,-1.07314 2.80859,-2.16797 0.92942,-0.70769 1.85883,-1.41539 2.81641,-2.14453 1.52803,-1.191 3.05053,-2.38928 4.55859,-3.60547 2.70019,-1.88194 5.52038,-3.22991 8.5,-4.625 1.66869,-0.7947 1.66869,-0.7947 3.3711,-1.60546 3.03424,-1.14759 4.99535,-1.47586 8.1914,-1.20704 0.8125,2.6875 0.8125,2.6875 1,6 -2.125,2.625 -2.125,2.625 -5,5 -1.33031,1.14469 -1.33031,1.14469 -2.6875,2.3125 -2.3125,1.6875 -2.3125,1.6875 -4.3125,1.6875 -0.33,0.66 -0.66,1.32 -1,2 -2.33843,1.27762 -4.66431,2.47162 -7.0625,3.625 -0.66322,0.32485 -1.32644,0.64969 -2.00976,0.98438 -1.63995,0.80228 -3.28351,1.59715 -4.92774,2.39062 0.58008,0.89139 0.58008,0.89139 1.17188,1.80079 6.78702,10.80212 9.45996,19.40452 8.82812,32.19921 0,1.32 0,2.64 0,4 0.76442,0.20754 1.52883,0.41508 2.31641,0.62891 9.05996,2.60569 17.24479,6.21975 25.6836,10.37109 0.83015,0.39575 1.66031,0.79149 2.51562,1.19922 9.02067,4.3554 16.71827,10.43767 23.48438,17.80078 0.33,0.99 0.66,1.98 1,3 0.66,0 1.32,0 2,0 1.83984,2.19532 1.83984,2.19532 3.9375,5.125 0.68965,0.95133 1.37929,1.90266 2.08984,2.88282 4.29912,6.52103 5.99233,11.24266 4.97266,18.99219 -1.4058,5.64314 -4.10685,8.39912 -9,11.4375 -5.4454,3.04643 -9.4492,3.70147 -15.6875,3.6875 -1.15887,0.003 -2.31774,0.005 -3.51172,0.008 -2.80078,-0.13281 -2.80078,-0.13281 -3.80078,-1.13281 -1.40699,-0.3721 -2.82627,-0.69829 -4.25,-1 -1.21237,-0.25911 -1.21237,-0.25911 -2.44922,-0.52344 -2.43146,-0.50363 -4.86293,-1.00472 -7.30078,-1.47656 0,-0.66 0,-1.32 0,-2 -2.97001,-0.99 -2.97001,-0.99 -6.00001,-2 -0.10957,0.70382 -0.21914,1.40765 -0.33203,2.13281 -2.88657,17.97656 -5.72198,30.59226 -18.66797,43.86719 -0.53496,0.57363 -1.06992,1.14726 -1.62109,1.73828 -1.07779,1.13535 -2.22056,2.20868 -3.37891,3.26172 -0.66,0 -1.32,0 -2,0 0,0.66 0,1.32 0,2 -2.24416,1.34409 -4.49442,2.6753 -6.75,4 -0.95133,0.57234 -0.95133,0.57234 -1.92187,1.15625 -3.46784,2.0229 -5.22161,2.84375 -9.32813,2.84375 0,0.99 0,1.98 0,3 0.99,0.33 1.98,0.66 3,1 -0.66,0 -1.32,0 -2,0 -0.0735,1.13888 -0.0735,1.13888 -0.14843,2.30078 -0.0748,0.99386 -0.14954,1.98773 -0.22657,3.01172 -0.10441,1.4792 -0.10441,1.4792 -0.21093,2.98828 -0.41407,2.69922 -0.41407,2.69922 -2.41407,5.69922 -2.5,0.3125 -2.5,0.3125 -5,0 -2.75045,-2.75046 -2.39595,-4.66556 -2.625,-8.5 -0.11215,-1.74797 -0.11215,-1.74797 -0.22656,-3.53125 -0.0828,-1.65493 -0.14844,-3.31176 -0.14844,-4.96875 -1.23363,-0.41959 -1.23363,-0.41959 -2.49218,-0.84766 -7.75518,-2.78506 -14.07244,-6.0191 -20.50782,-11.15234 -0.77086,-0.58395 -1.54172,-1.16789 -2.33593,-1.76954 -9.95797,-8.07173 -16.54638,-19.56432 -18.01954,-32.30468 -0.17144,-2.02003 -0.31871,-4.04237 -0.43359,-6.06641 -0.22124,-2.99909 -0.6771,-5.90138 -1.21094,-8.85937 -1.25103,0.5066 -1.25103,0.5066 -2.52734,1.02343 -12.04414,4.77351 -24.89837,8.90035 -37.91016,4.97657 -5.40288,-2.49811 -9.35717,-6.91477 -11.51172,-12.42969 -2.02964,-8.29955 -0.19497,-15.22379 3.94922,-22.57031 0.66,0 1.32,0 2,0 0.22688,-0.53626 0.45375,-1.07251 0.6875,-1.62501 1.73293,-3.13577 3.98891,-5.65469 6.3125,-8.375 0.7425,-1.08281 0.7425,-1.08281 1.5,-2.1875 1.87614,-2.26699 3.97446,-3.31052 6.5,-4.8125 1.35736,-1.0375 2.71135,-2.07943 4.0625,-3.125 5.04309,-3.56965 10.3843,-6.10539 16,-8.625 0.83862,-0.37656 1.67723,-0.75313 2.54126,-1.14111 7.94951,-3.48486 15.95465,-6.1136 24.39624,-8.10889 -0.16758,-0.71542 -0.33515,-1.43085 -0.50781,-2.16796 -2.01755,-9.87067 -1.99707,-20.02422 3.50781,-28.83204 0.495,-0.92812 0.99,-1.85625 1.5,-2.8125 1.5,-2.1875 1.5,-2.1875 4.5,-3.1875 0,-0.66 0,-1.32 0,-2 -0.85336,-0.4114 -1.70672,-0.82261 -2.58593,-1.24628 -3.4681,-1.78166 -6.73561,-3.74691 -10.03907,-5.81641 -4.20565,-2.66725 -4.20565,-2.66725 -8.60156,-4.98828 -3.0394,-1.62681 -4.66961,-4.26099 -6.77344,-6.94922 2.43993,-5.40269 2.43993,-5.40269 6.16407,-4.4414 z m 54.71484,81.44922 c -4.69877,1.61938 -9.45963,0.99875 -14.37305,0.73828 -4.83137,-0.19405 -4.83137,-0.19405 -8.96289,2.10937 -2.18875,3.04209 -4.0739,5.96288 -5.46094,9.45703 -1.52303,3.78285 -3.35542,7.40896 -5.15625,11.06641 -0.99536,2.8181 -1.1277,3.91974 0.0742,6.6211 2.25,1.91666 2.25,1.91666 5,3 2.08334,-0.16667 2.08334,-0.16667 4,-1 4.87572,-1.5672 10.15174,-1.61609 15,0 2.33426,-0.3268 4.66743,-0.6614 7,-1 8.25915,-0.49391 8.25915,-0.49391 12,2 2.5,0.5 2.5,0.5 5,0 2.41357,-2.41357 3.50014,-4.64571 4,-8 -1.34811,-2.59097 -2.72081,-4.9432 -4.3125,-7.37501 -2.87859,-4.46694 -5.20346,-8.46445 -6.6875,-13.625 -0.65411,-1.67163 -1.31653,-3.34015 -2,-5 -2.93977,-0.21457 -2.93977,-0.21457 -5.12109,1.00782 z m -45.87891,45.99219 c -1.84473,1.84473 -1.21643,4.7121 -1.25,7.1875 0.0821,6.27107 0.52017,10.08846 5.08985,14.64843 10.68414,9.74903 24.24368,12.73501 38.4414,12.47266 10.87193,-0.90219 21.38822,-4.03859 29.71875,-11.30859 2.87962,-4.57351 4.48902,-10.51451 4,-16 -1.40369,-1.76962 -1.40369,-1.76962 -3,-3 -3.03469,1.40482 -5.52315,3.11582 -8.1875,5.125 -4.73939,3.17252 -8.22175,3.87061 -13.8125,2.875 -8.1,-2.1 -8.1,-2.1 -10,-4 -3.93667,-0.48009 -6.2467,0.0119 -9.5625,2 -5.57144,2.96716 -11.29296,2.99153 -17.4375,2 -6.06043,-2.56471 -9.78413,-6.37223 -13,-12 -0.33,0 -0.66,0 -1,0 z"
     fill="#050605"
     id="path2" />
  <path
     d="m 863.18971,196.14919 c 10.48665,10.48665 9.30162,24.47541 9.36328,38.23437 0.004,0.77203 0.008,1.54406 0.0123,2.33949 0.0208,4.08573 0.0351,8.17142 0.0445,12.25719 0.011,4.1869 0.0455,8.37326 0.0852,12.55997 0.0263,3.24996 0.0345,6.4998 0.0381,9.74986 0.005,1.54196 0.0163,3.08392 0.035,4.62577 0.12581,11.04963 -1.29128,20.41018 -6.45348,30.35835 -0.66,0 -1.32,0 -2,0 0,0.66 0,1.32 0,2 -1.53907,1.21875 -1.53907,1.21875 -3.625,2.5 -0.6729,0.42281 -1.34579,0.84562 -2.03907,1.28125 -9.5407,4.97776 -22.37218,4.68941 -32.75781,2.49609 -7.84143,-2.93459 -13.04106,-8.79367 -16.57812,-16.27734 -2.61047,-7.81928 -2.29071,-15.74244 -2.26563,-23.89063 -0.001,-1.55165 -0.003,-3.10331 -0.006,-4.65496 -0.003,-3.24445 0.001,-6.48879 0.0107,-9.73322 0.0114,-4.12621 0.005,-8.25216 -0.007,-12.37836 -0.007,-3.20365 -0.005,-6.40724 2.6e-4,-9.61089 0.001,-1.5196 -2.6e-4,-3.0392 -0.005,-4.55879 -0.064,-26.47868 -0.064,-26.47868 9.83509,-36.86065 14.21384,-10.83484 31.73996,-9.94133 46.3125,-0.4375 z m -33.875,16.125 c -1.47944,2.95887 -1.14369,5.62249 -1.16114,8.9248 -0.005,0.71242 -0.01,1.42484 -0.015,2.15885 -0.0146,2.36275 -0.0214,4.72543 -0.0269,7.08822 -0.006,1.64187 -0.0115,3.28374 -0.0173,4.9256 -0.0105,3.44668 -0.0163,6.89334 -0.0198,10.34003 -0.006,4.40951 -0.0295,8.81871 -0.058,13.22813 -0.0187,3.39385 -0.0238,6.78762 -0.0254,10.18151 -0.003,1.62506 -0.011,3.25011 -0.0242,4.87511 -0.0171,2.27869 -0.0152,4.55663 -0.009,6.83537 -0.004,1.29524 -0.007,2.59049 -0.0111,3.92498 0.48738,4.66486 1.88359,8.06126 5.2464,11.36115 2.51054,1.36854 4.20705,1.6211 7.0586,1.65625 0.83402,0.0309 1.66804,0.0619 2.52734,0.0937 2.81385,-0.65902 4.46891,-1.65629 6.46223,-3.75186 2.42679,-4.16608 1.81835,-9.34322 1.81511,-14.02549 0.0175,-1.20592 0.035,-2.41184 0.053,-3.65431 0.0496,-3.86667 0.0644,-7.73265 0.0798,-11.59959 0.0318,-2.53714 0.0656,-5.07425 0.10156,-7.61133 0.0888,-7.31813 0.0807,-14.63284 0.0234,-21.95117 -0.005,-1.10821 -0.0102,-2.21642 -0.0155,-3.35822 -0.0252,-3.06042 -0.0869,-6.11744 -0.16418,-9.17694 -0.009,-1.34027 -0.009,-1.34027 -0.0186,-2.70762 -0.15725,-4.346 -0.39804,-6.22993 -3.11472,-9.77846 -6.9433,-5.11316 -12.58907,-3.13388 -18.68701,2.02124 z"
     fill="#0b0d0c"
     id="path3" />
  <path
     d="m 896.87721,190.64919 c 1.19012,0.0657 1.19012,0.0657 2.40429,0.13281 5.90403,0.36302 5.90403,0.36302 7.03321,1.49219 0.12232,1.4725 0.17774,2.95066 0.20532,4.42798 0.0199,0.9409 0.0399,1.8818 0.0604,2.85121 0.0167,1.0229 0.0334,2.04581 0.0506,3.09971 0.0208,1.0418 0.0416,2.0836 0.063,3.15697 0.0656,3.34214 0.12444,6.68436 0.18313,10.02663 0.0432,2.25977 0.0868,4.51954 0.13085,6.7793 0.10733,5.55264 0.20907,11.10537 0.30665,16.6582 1.89685,0.0909 1.89685,0.0909 3.83203,0.18359 1.66016,0.0844 3.32032,0.16907 4.98047,0.25391 0.83337,0.0393 1.66675,0.0786 2.52539,0.11914 1.20366,0.0628 1.20366,0.0628 2.43164,0.12695 1.10758,0.055 1.10758,0.055 2.23755,0.11109 1.99292,0.20532 1.99292,0.20532 4.99292,1.20532 0.008,-0.58216 0.0162,-1.16432 0.0245,-1.76412 0.086,-6.05077 0.18545,-12.10122 0.29287,-18.15165 0.0383,-2.25906 0.0732,-4.51818 0.10449,-6.77735 0.0456,-3.24444 0.1036,-6.48846 0.16407,-9.73266 0.0115,-1.01259 0.0231,-2.02517 0.035,-3.06844 0.0199,-0.94075 0.0397,-1.8815 0.0602,-2.85075 0.0133,-0.82829 0.0267,-1.65658 0.0404,-2.50997 0.27847,-2.14506 0.27847,-2.14506 2.27847,-5.14506 4.60486,-1.58292 10.18313,-1.48169 15,-1 3,2 3,2 3.67919,4.48193 0.42062,4.61268 0.46311,9.17744 0.45362,13.80713 0.001,1.0284 0.003,2.0568 0.004,3.11636 0.002,3.40657 -0.004,6.81303 -0.0122,10.21958 -0.002,1.16753 -0.004,2.33505 -0.006,3.53796 -0.0168,8.94583 -0.0617,17.89139 -0.1193,26.83704 -0.004,0.68421 -0.009,1.36843 -0.0129,2.07338 -0.0569,9.04857 -0.13775,18.09653 -0.25156,27.14458 -0.0335,2.68882 -0.0602,5.37758 -0.0814,8.06652 -0.033,3.7649 -0.085,7.52905 -0.14239,11.29365 -0.006,1.13079 -0.0128,2.26159 -0.0194,3.42666 -0.0198,1.0287 -0.0396,2.05741 -0.06,3.11728 -0.0111,0.89858 -0.0222,1.79715 -0.0336,2.72296 -0.13158,0.71114 -0.26316,1.42228 -0.39873,2.15497 -3.77094,2.51396 -6.7668,2.26026 -11.125,2.1875 -0.74121,-6.4e-4 -1.48242,-10e-4 -2.2461,-0.002 -5.48851,-0.0452 -5.48851,-0.0452 -6.6289,-1.18555 -0.0935,-1.68802 -0.11745,-3.37995 -0.11353,-5.07056 8e-5,-1.08104 1.5e-4,-2.16209 2.3e-4,-3.27589 0.005,-1.17602 0.0103,-2.35205 0.0156,-3.56371 0.001,-1.19717 0.003,-2.39434 0.004,-3.62779 0.006,-3.84154 0.0182,-7.68303 0.0309,-11.52455 0.005,-2.59701 0.01,-5.19401 0.0137,-7.79102 0.011,-6.38218 0.0283,-12.76432 0.0488,-19.14648 -7.59,0 -15.18,0 -23,0 0,17.82 0,35.64 0,54 -4.56786,0.91357 -8.69915,1.1161 -13.3125,1.0625 -0.74057,-0.005 -1.48113,-0.009 -2.24414,-0.0137 -1.81449,-0.0117 -3.62893,-0.0296 -5.44336,-0.0488 -0.0233,-15.59424 -0.041,-31.18848 -0.0518,-46.78274 -0.005,-7.24047 -0.0122,-14.48094 -0.0236,-21.72141 -0.01,-6.30988 -0.0164,-12.61975 -0.0186,-18.92963 -0.001,-3.34185 -0.004,-6.68368 -0.0116,-10.02552 -0.007,-3.72818 -0.008,-7.45631 -0.008,-11.1845 -0.004,-1.1113 -0.007,-2.22261 -0.0109,-3.36758 0.001,-1.01383 0.003,-2.02765 0.004,-3.07219 -9.2e-4,-0.88216 -0.002,-1.76432 -0.003,-2.6732 0.12302,-2.24318 0.12302,-2.24318 1.12302,-5.24318 3.31497,-1.65749 6.94822,-0.86104 10.5625,-0.625 z"
     fill="#040605"
     id="path4" />
  <path
     d="m 591.31471,191.27419 c 45.92067,0 45.92067,0 53.53125,7.26953 7.60164,8.9562 6.65022,20.18209 6.65625,31.29297 0.0122,1.19303 0.0245,2.38605 0.0371,3.61523 0.0234,14.0052 0.0234,14.0052 -3.76758,18.75586 -1.09933,1.00532 -2.20355,2.00532 -3.3125,3 -2.71941,4.90979 0.46576,13.05116 1.8164,18.30078 0.19124,0.75928 0.38247,1.51856 0.5795,2.30085 0.60706,2.40608 1.22065,4.81044 1.83457,7.21478 0.40408,1.59624 0.80773,3.19259 1.21093,4.78906 0.77733,3.07546 1.55699,6.15031 2.33887,9.22461 1.37446,5.4081 2.72749,10.82151 4.0752,16.23633 -7.36376,0.77236 -14.59477,1.12891 -22,1 -3.00723,-8.36179 -5.01276,-16.93046 -7.0625,-25.5625 -0.52915,-2.21128 -1.0594,-4.42229 -1.58971,-6.63329 -0.47972,-2.00276 -0.95693,-4.00613 -1.43398,-6.00953 -0.30156,-1.25225 -0.60312,-2.50449 -0.91381,-3.79468 -0.16137,-0.72171 -0.32273,-1.44341 -0.48899,-2.18698 -0.92488,-4.32969 -0.92488,-4.32969 -3.51101,-7.81302 -2.64,-0.33 -5.28,-0.66 -8,-1 0,17.49 0,34.98 0,53 -18,0 -18,0 -20,-1 0,-40.26 0,-80.52 0,-122 z m 20,18 c -0.0886,2.81163 -0.11523,5.59858 -0.0977,8.41015 0.001,0.84204 0.003,1.68407 0.004,2.55163 0.006,2.70027 0.0182,5.40047 0.0309,8.10072 0.005,1.82617 0.01,3.65234 0.0137,5.47851 0.011,4.48636 0.0283,8.97266 0.0488,13.45899 2.22988,-0.0875 4.45896,-0.19569 6.6875,-0.3125 1.86205,-0.087 1.86205,-0.087 3.76171,-0.17578 3.6582,-0.5272 5.63714,-1.28161 8.55079,-3.51172 2.15873,-4.49303 2.31887,-8.90689 2.25,-13.8125 -0.008,-0.70415 -0.0164,-1.4083 -0.0249,-2.13379 -0.0293,-9.57126 -0.0293,-9.57126 -4.6001,-17.61621 -3.9052,-1.54862 -13.21012,-3.85238 -16.625,-0.4375 z"
     fill="#080b0a"
     id="path5" />
  <path
     d="m 722.35768,198.282 c 8.35848,9.89231 7.28239,21.79158 7.29296,34.05469 0.006,1.75919 0.0132,3.51839 0.0202,5.27758 0.0119,3.67475 0.0157,7.34941 0.0145,11.02417 -2e-4,4.6905 0.0272,9.3804 0.0616,14.07076 0.0223,3.62902 0.0263,7.25789 0.0252,10.88698 0.002,1.72864 0.0111,3.45728 0.0267,5.18585 0.14103,17.29512 0.14103,17.29512 -4.48405,24.49216 -0.86625,1.36125 -0.86625,1.36125 -1.75,2.75 -6.43742,6.43742 -13.92779,9.46285 -22.97632,9.62964 -1.21829,-0.002 -1.21829,-0.002 -2.46118,-0.005 -0.83991,-8.9e-4 -1.67981,-0.002 -2.54517,-0.003 -8.29924,-0.15758 -15.85019,-1.80299 -22.26733,-7.37231 0,-0.66 0,-1.32 0,-2 -0.66,0 -1.32,0 -2,0 -6.33889,-11.1987 -6.30457,-22.69747 -6.26563,-35.28907 -0.001,-1.55455 -0.003,-3.10911 -0.006,-4.66366 -0.003,-3.23911 0.001,-6.4781 0.0107,-9.7172 0.0114,-4.12978 0.005,-8.2593 -0.007,-12.38907 -0.007,-3.20353 -0.005,-6.40699 2.6e-4,-9.61051 0.001,-1.52208 -2.7e-4,-3.04416 -0.005,-4.56623 -0.0295,-12.26676 0.21039,-22.96342 8.80384,-32.45567 6.55979,-6.17301 14.78075,-8.89187 23.67578,-9.40625 9.00975,0.3157 18.36493,3.74649 24.83594,10.10614 z m -31.10547,10.55469 c -0.69223,0.29004 -1.38446,0.58007 -2.09766,0.8789 -2.80633,2.37734 -3.00819,5.03009 -3.83984,8.5586 -0.30377,3.34677 -0.30377,3.34677 -0.27466,6.80224 -0.01,1.31181 -0.0191,2.62363 -0.0289,3.97519 2.6e-4,1.41534 0.001,2.83067 0.003,4.246 -0.004,1.4706 -0.008,2.94119 -0.013,4.41178 -0.007,3.07469 -0.007,6.14927 -0.002,9.22397 0.006,3.91924 -0.0111,7.83801 -0.0343,11.75717 -0.0148,3.0354 -0.0156,6.07069 -0.0125,9.10613 -5.1e-4,1.44393 -0.006,2.88787 -0.0158,4.33178 -0.3787,12.92537 -0.3787,12.92537 5.19082,24.14574 4.40654,2.01442 7.17312,2.29228 11.875,0.9375 3.95925,-2.31579 4.65228,-3.72328 6.3125,-7.9375 0.44362,-3.55692 0.44362,-3.55692 0.37231,-7.39478 0.004,-0.71461 0.007,-1.42922 0.0111,-2.16548 0.008,-2.34605 -0.005,-4.69139 -0.0201,-7.0374 -5.2e-4,-1.63854 0,-3.27709 0.001,-4.91563 -9e-5,-3.42707 -0.0105,-6.85389 -0.0286,-10.2809 -0.0227,-4.38704 -0.0232,-8.77374 -0.0165,-13.16082 0.003,-3.38096 -0.003,-6.76183 -0.0131,-10.14277 -0.004,-1.61749 -0.005,-3.23498 -0.003,-4.85247 3.8e-4,-2.26162 -0.0123,-4.52281 -0.0285,-6.78437 -0.007,-1.92811 -0.007,-1.92811 -0.014,-3.89516 -0.25199,-3.25772 -0.76384,-5.48314 -2.26069,-8.37022 -1.80729,-1.22877 -1.80729,-1.22877 -3.9375,-1.8125 -0.68965,-0.23332 -1.3793,-0.46664 -2.08985,-0.70704 -3.50653,-0.85406 -5.8227,-0.35306 -9.03515,1.08204 z"
     fill="#040807"
     id="path6" />
  <path
     d="m 1224.7522,191.10622 c 1.1312,-0.005 1.1312,-0.005 2.2852,-0.0101 1.604,-0.005 3.208,-0.007 4.812,-0.007 2.4274,-0.002 4.8544,-0.0202 7.2817,-0.0393 11.9942,-0.0445 23.9303,0.11022 32.9961,8.97461 5.1736,7.68645 6.301,15.62632 6.3328,24.82104 0.01,1.26209 0.013,2.52418 0.019,3.82451 0,1.36164 0,2.72328 0,4.08492 0,1.41856 0.01,2.83712 0.01,4.25569 0.01,2.96792 0.01,5.93581 0.01,8.90373 -10e-5,3.77087 0.014,7.54155 0.031,11.31237 0.011,2.92999 0.013,5.85994 0.013,8.78995 0,1.38842 0.01,2.77685 0.013,4.16525 0.1407,27.56479 0.1407,27.56479 -8.992,36.90504 -10.4478,7.03217 -19.8829,7.37418 -32.2852,7.3728 -2.2228,0.002 -4.4452,0.0205 -6.6679,0.0393 -1.4167,0.003 -2.8334,0.005 -4.25,0.006 -1.9206,0.006 -1.9206,0.006 -3.8799,0.0125 -3.167,-0.2431 -3.167,-0.2431 -6.167,-2.2431 -0.3719,-2.11739 -0.3719,-2.11739 -0.3675,-4.78945 -0.01,-1.011 -0.011,-2.022 -0.017,-3.06364 0.01,-1.11333 0.018,-2.22665 0.028,-3.37372 -0,-1.16911 -0,-2.33823 -0.01,-3.54277 -0,-3.21073 0.01,-6.42109 0.025,-9.63177 0.015,-3.35477 0.014,-6.70954 0.015,-10.06434 0,-5.63332 0.019,-11.26652 0.041,-16.89979 0.029,-7.2393 0.039,-14.4785 0.044,-21.71784 0,-6.21375 0.016,-12.42748 0.03,-18.64121 0,-2.00245 0.01,-4.00491 0.01,-6.00736 0.01,-3.72361 0.02,-7.44712 0.036,-11.1707 0,-1.11535 0,-2.2307 0,-3.37985 0.01,-1.00819 0.011,-2.01637 0.017,-3.0551 0,-0.8814 0.01,-1.76281 0.01,-2.67092 0.305,-4.62136 4.9651,-3.15403 8.5689,-3.15951 z m 12.5625,17.16797 c -1.8112,1.81115 -1.1199,4.29877 -1.1244,6.70901 0,0.81927 0.01,1.63854 0.011,2.48264 -2e-4,0.85846 -3e-4,1.71692 -5e-4,2.60139 7e-4,2.85156 0.01,5.70306 0.016,8.55461 0,1.97156 0,3.94311 0,5.91466 0,5.19995 0.014,10.39987 0.025,15.59981 0.01,5.30181 0.015,10.60363 0.02,15.90546 0.011,10.41081 0.028,20.82161 0.049,31.23242 2.7542,-0.39689 5.5016,-0.8165 8.25,-1.25 1.166,-0.16436 1.166,-0.16436 2.3555,-0.33203 4.6368,-0.75299 7.4872,-1.43166 10.3945,-5.41797 1.1322,-3.39645 1.1339,-5.99779 1.1453,-9.57935 0,-0.6638 0.01,-1.32759 0.01,-2.0115 0.01,-2.195 0.011,-4.38992 0.013,-6.58493 0,-1.52834 0.01,-3.05668 0.01,-4.58501 0.01,-3.20531 0.01,-6.4106 0.01,-9.61592 -10e-5,-4.0989 0.014,-8.19763 0.031,-12.29649 0.011,-3.15794 0.013,-6.31584 0.013,-9.4738 0,-1.5106 0.01,-3.02121 0.013,-4.5318 0.01,-2.11801 0.01,-4.23565 9e-4,-6.35367 0,-1.20341 0,-2.40681 0,-3.64669 -0.2569,-3.45053 -0.9046,-6.13734 -2.2472,-9.32084 -5.2625,-4.12463 -12.5408,-3.96304 -19,-4 z"
     fill="#090b0b"
     id="path7" />
  <path
     d="m 997.31471,190.27419 c 2.73909,-0.30401 5.20259,-0.4183 7.93749,-0.375 0.729,-0.0116 1.4579,-0.0232 2.209,-0.0352 5.3224,0.0293 5.3224,0.0293 7.5012,1.5918 1.778,2.39082 2.1505,4.38408 2.7117,7.31055 0.2253,1.1587 0.4507,2.31741 0.6828,3.51123 0.3504,1.91643 0.3504,1.91643 0.7078,3.87158 0.2534,1.34654 0.5069,2.69305 0.7605,4.03955 3.048,16.42204 5.5539,32.94261 8.0715,49.45264 0.1289,0.83958 0.2579,1.67916 0.3907,2.54419 0.6094,4.03814 1.1409,8.0648 1.5534,12.12817 0.032,3.72441 0.032,3.72441 1.4739,4.96045 -0.053,-1.00289 -0.1057,-2.00578 -0.1602,-3.03906 0.01,-6.86743 1.5088,-13.60073 2.7227,-20.33594 0.5526,-3.11274 1.1007,-6.22625 1.6484,-9.33985 0.1442,-0.81608 0.2884,-1.63216 0.4369,-2.47297 1.1288,-6.42933 2.177,-12.86975 3.2038,-19.31609 0.3089,-1.92207 0.6181,-3.84411 0.9275,-5.76611 0.4544,-2.82379 0.9054,-5.64788 1.3447,-8.47406 0.4107,-2.63784 0.8354,-5.2731 1.2629,-7.90827 0.1186,-0.78701 0.2372,-1.57403 0.3594,-2.3849 1.1969,-7.22394 1.1969,-7.22394 4.2539,-9.96275 2.0847,-0.4541 2.0847,-0.4541 4.4492,-0.39063 0.8476,0.0129 1.6951,0.0258 2.5684,0.0391 0.8811,0.0335 1.7621,0.067 2.6699,0.10156 0.8927,0.018 1.7854,0.0361 2.7051,0.0547 2.2035,0.0471 4.4049,0.1129 6.6074,0.19531 0.7626,10.26401 -1.5443,19.85406 -3.6875,29.8125 -0.3441,1.64237 -0.6872,3.28495 -1.0293,4.92773 -2.4114,11.50777 -5.0132,22.97127 -7.6374,34.43204 -1.0923,4.78308 -2.1709,9.56926 -3.2513,14.35507 -0.6445,2.84894 -1.2893,5.6978 -1.9343,8.54663 -0.4378,1.93572 -0.875,3.8716 -1.3115,5.80762 -0.6454,2.86151 -1.2933,5.72243 -1.9417,8.58325 -0.1927,0.85731 -0.3854,1.71461 -0.584,2.59789 -1.067,4.69548 -2.2526,9.32092 -3.623,13.93727 -2.8957,0.16839 -5.7916,0.33477 -8.6875,0.5 -1.2249,0.0715 -1.2249,0.0715 -2.4746,0.14453 -3.9514,0.22397 -7.8781,0.41999 -11.8379,0.35547 -2.3987,-4.95531 -2.9333,-10.17852 -3.75,-15.5625 -1.4529,-9.15249 -3.1958,-18.19989 -5.1875,-27.25 -2.0468,-9.30712 -3.9325,-18.62185 -5.625,-28 -1.7448,-9.66681 -3.6824,-19.27041 -5.82641,-28.85669 -1.60848,-7.19297 -2.97488,-13.93359 -2.61108,-21.33081 0.66,-0.99 1.32,-1.98 2,-3 z"
     fill="#070a09"
     id="path8" />
  <path
     d="m 536.31471,190.27419 c 1.01562,0.021 1.01562,0.021 2.05175,0.0425 11.87439,0.25494 25.64386,0.58357 34.94825,8.95752 6.13064,8.1294 6.2128,15.1274 6.24023,25.052 0.01,2.11133 0.0407,4.22166 0.0723,6.33276 0.0759,9.58979 -0.34482,18.76194 -7.28906,26.04493 -9.7339,7.55409 -21.00855,6.90281 -33.02344,7.57031 0,16.17 0,32.34 0,49 -4.53662,0.90732 -8.66523,1.14974 -13.25,1.125 -1.09829,0.006 -1.09829,0.006 -2.21875,0.0117 -5.40454,-0.01 -5.40454,-0.01 -6.53125,-1.13672 -0.0998,-1.41951 -0.13075,-2.84394 -0.13372,-4.26695 -0.006,-1.38134 -0.006,-1.38134 -0.0129,-2.79059 4.6e-4,-1.01863 9.1e-4,-2.03725 0.001,-3.08675 -0.003,-1.06673 -0.007,-2.13346 -0.0102,-3.23251 -0.01,-3.55019 -0.0115,-7.10034 -0.0125,-10.65055 -0.003,-2.46326 -0.007,-4.92652 -0.0101,-7.38978 -0.006,-5.17778 -0.008,-10.35553 -0.007,-15.53331 10e-5,-6.6208 -0.0135,-13.24148 -0.0308,-19.86225 -0.0112,-5.0951 -0.0131,-10.19017 -0.0126,-15.28527 -0.001,-2.43953 -0.006,-4.87905 -0.0133,-7.31856 -0.01,-3.42496 -0.007,-6.84968 -8.9e-4,-10.27464 -0.006,-1.00041 -0.0112,-2.00082 -0.017,-3.03154 0.0279,-6.31132 0.78893,-12.13945 2.25988,-18.27728 5.71732,-2.47236 10.90465,-2.2182 17,-2 z m 3,18 c 0,12.21 0,24.42 0,37 10.23946,0.3013 10.23946,0.3013 19,-3 2.86351,-4.6883 2.33076,-10.18779 2.3125,-15.5 0.0161,-0.93715 0.0322,-1.8743 0.0488,-2.83985 0.0518,-6.86993 0.0518,-6.86993 -3.36133,-12.66015 -2.05653,-1.18928 -2.05653,-1.18928 -4.375,-1.75 -0.79536,-0.22688 -1.59071,-0.45375 -2.41016,-0.6875 -0.7309,-0.18563 -1.4618,-0.37125 -2.21484,-0.5625 -0.92813,-0.2475 -1.85625,-0.495 -2.8125,-0.75 -2.51424,-0.41703 -2.51424,-0.41703 -6.1875,0.75 z"
     fill="#090b0b"
     id="path9" />
  <path
     d="m 1188.5881,192.94216 c 7.1107,5.94855 10.7283,10.9504 11.7266,20.33203 0.1826,3.62607 0.2303,7.24476 0.25,10.875 0.021,0.9423 0.041,1.88461 0.062,2.85547 0.055,9.94049 -2.1023,16.8732 -9.0625,24.08203 -0.6188,0.58781 -0.6188,0.58781 -1.25,1.1875 0.5568,0.0619 1.1137,0.12375 1.6875,0.1875 3.3931,1.19218 5.3741,2.85327 7.3125,5.8125 5.1274,11.59765 5.0064,28.98707 1.3125,41 -3.0545,7.43331 -7.1232,11.4707 -14.3125,15 -9.0873,2.74846 -22.4811,2.60711 -30.9883,-1.60937 -6.2669,-4.33204 -10.2017,-9.95946 -12.0117,-17.39063 -0.3348,-3.84506 -0.2862,-7.64435 -0.1875,-11.5 0.014,-1.0132 0.027,-2.02641 0.041,-3.07031 0.035,-2.47713 0.084,-4.95312 0.1465,-7.42969 4.359,-0.69113 8.5248,-1.11698 12.9375,-1.0625 1.4366,0.0135 1.4366,0.0135 2.9023,0.0273 0.7129,0.0116 1.4257,0.0232 2.1602,0.0352 0.1211,1.25297 0.2423,2.50594 0.3672,3.79687 0.1688,1.65109 0.3381,3.30213 0.5078,4.95313 0.079,0.825 0.1572,1.65 0.2383,2.5 0.084,0.79922 0.1675,1.59844 0.2539,2.42187 0.073,0.73316 0.1466,1.46631 0.2221,2.22168 0.4565,2.3416 1.1762,4.06842 2.4107,6.10645 3.9571,1.97858 8.695,1.54874 13,1 3.4093,-3.00826 3.6687,-7.37131 4.0156,-11.75391 -0.034,-7.1208 -1.0863,-14.19572 -2.0156,-21.24609 -0.8083,-0.17016 -1.6165,-0.34031 -2.4492,-0.51563 -11.5435,-2.61781 -11.5435,-2.61781 -14.5508,-6.48437 -0.625,-3.4375 -0.625,-3.4375 0,-7 2.7891,-3.99778 5.6663,-5.3301 10.125,-6.875 3.5652,-1.35817 4.6659,-1.84218 7,-5 2.0555,-6.78322 2.2122,-15.78807 -0.5,-22.375 -1.4884,-2.7794 -1.4884,-2.7794 -3.625,-4.75 -2.1024,-0.3941 -2.1024,-0.3941 -4.4375,-0.375 -1.1737,-0.0425 -1.1737,-0.0425 -2.3711,-0.0859 -2.2716,0.29692 -2.2716,0.29692 -3.9024,1.90625 -1.9212,3.80758 -2.118,7.59395 -2.4765,11.80469 -0.082,0.84047 -0.1637,1.68093 -0.2481,2.54687 -0.1996,2.06663 -0.3836,4.13477 -0.5644,6.20313 -3.9499,0.60285 -7.814,1.15248 -11.8125,1.1875 -1.1234,0.0213 -1.1234,0.0213 -2.2696,0.043 -1.9179,-0.23047 -1.9179,-0.23047 -3.9179,-2.23047 -1.0801,-10.84287 -0.5839,-23.48597 5.875,-32.625 8.5122,-9.95539 27.7192,-12.54211 38.3984,-4.70703 z"
     fill="#070a09"
     id="path10" />
  <path
     d="m 1076.3147,191.27419 c 7.4929,-0.12657 14.9855,-0.21425 22.4793,-0.27466 2.5502,-0.0252 5.1004,-0.0593 7.6503,-0.10254 3.6614,-0.0605 7.3219,-0.089 10.9837,-0.11108 1.1438,-0.0258 2.2876,-0.0516 3.4661,-0.0782 1.0609,-3.8e-4 2.1218,-7.6e-4 3.2148,-0.001 0.9349,-0.0111 1.8697,-0.0222 2.833,-0.0336 2.3728,0.60127 2.3728,0.60127 4.1662,2.94216 1.4051,3.09646 1.708,5.58456 1.8941,8.97161 0.099,1.60295 0.099,1.60295 0.1992,3.23828 0.056,1.21236 0.056,1.21236 0.1133,2.44922 -7.8383,0.94673 -15.6872,1.51853 -23.5625,2.0625 -4.4344,0.30937 -8.8687,0.61875 -13.4375,0.9375 -0.33,9.57 -0.66,19.14 -1,29 8.1381,-0.40781 8.1381,-0.40781 16.2749,-0.83838 1.0101,-0.0456 2.0203,-0.0912 3.061,-0.13818 1.5554,-0.0786 1.5554,-0.0786 3.1421,-0.1587 2.522,0.13526 2.522,0.13526 4.522,2.13526 0.3008,3.15234 0.3008,3.15234 0.3125,6.9375 0.017,1.24652 0.034,2.49305 0.051,3.77734 -0.3633,3.28516 -0.3633,3.28516 -1.5396,4.97217 -2.5298,1.82131 -4.2705,1.6551 -7.3667,1.60596 -0.967,-0.007 -1.934,-0.015 -2.9304,-0.0227 -1.2256,-0.0273 -2.4513,-0.0546 -3.7141,-0.0828 -3.8981,-0.0619 -7.7962,-0.12375 -11.8125,-0.1875 -0.33,12.21 -0.66,24.42 -1,37 12.0864,0.21007 12.0864,0.21007 24.1733,0.38794 1.5126,0.0323 3.0251,0.0657 4.5376,0.10034 0.7887,0.006 1.5774,0.0125 2.3899,0.0189 2.2757,0.0604 2.2757,0.0604 5.8992,0.4928 2.4449,3.66731 2.1749,5.23279 1.875,9.5625 -0.064,1.15629 -0.1289,2.31258 -0.1953,3.50391 -0.6797,2.93361 -0.6797,2.93361 -2.4281,4.10178 -2.4801,0.91624 -4.3179,1.07937 -6.9567,1.07475 -1.3916,0.005 -1.3916,0.005 -2.8114,0.009 -0.9948,-0.007 -1.9897,-0.0144 -3.0147,-0.0218 -1.5421,-6.9e-4 -1.5421,-6.9e-4 -3.1154,-10e-4 -2.172,-0.003 -4.344,-0.0109 -6.516,-0.0233 -3.3248,-0.0182 -6.6493,-0.0205 -9.9741,-0.0203 -2.1107,-0.005 -4.2214,-0.0108 -6.332,-0.0176 -0.9949,-0.001 -1.9898,-0.002 -3.0148,-0.003 -1.3917,-0.01 -1.3917,-0.01 -2.8114,-0.0193 -0.814,-0.004 -1.628,-0.008 -2.4667,-0.0115 -2.2044,-0.13209 -4.1101,-0.57158 -6.2384,-1.13412 -1.9254,-6.47018 -2.2806,-12.32186 -2.2429,-19.05005 -0,-1.07899 -0,-2.15799 -0.01,-3.26968 -0,-3.54585 0.01,-7.09148 0.018,-10.6373 0,-2.47003 0,-4.94006 0,-7.41008 0,-5.16534 0.01,-10.33061 0.023,-15.49593 0.017,-6.6291 0.021,-13.25813 0.02,-19.88726 2e-4,-5.0948 0.01,-10.18958 0.013,-15.28438 0,-2.4453 0.01,-4.8906 0.01,-7.33591 0,-3.40881 0.011,-6.81754 0.022,-10.22634 -4e-4,-1.01457 -9e-4,-2.02915 -0,-3.07447 0,-0.92654 0.01,-1.85307 0.013,-2.80768 0,-0.8054 0,-1.61079 0.01,-2.4406 0.1286,-2.08032 0.1286,-2.08032 1.1286,-5.08032 z"
     fill="#060707"
     id="path11" />
  <path
     d="m 736.31471,191.27419 c 21.12,0 42.24,0 64,0 0.99,7.425 0.99,7.425 2,15 -4,2 -4,2 -24,3 0.33,34.32 0.66,68.64 1,104 -4.15961,1.0399 -7.94203,1.14764 -12.1875,1.125 -0.7367,0.004 -1.4734,0.008 -2.23243,0.0117 -5.45339,-0.01 -5.45339,-0.01 -6.58007,-1.13672 -0.0953,-1.36608 -0.12189,-2.73705 -0.12026,-4.10646 -0.001,-0.88486 -0.003,-1.76972 -0.004,-2.6814 0.004,-0.97823 0.007,-1.95646 0.0109,-2.96434 -1.5e-4,-1.02427 -2.9e-4,-2.04854 -4.4e-4,-3.10385 7e-4,-3.40347 0.009,-6.80689 0.0163,-10.21036 0.002,-2.35269 0.003,-4.70539 0.004,-7.05809 0.004,-6.20607 0.0137,-12.41212 0.0247,-18.61818 0.0102,-6.32731 0.0148,-12.65462 0.0198,-18.98193 0.0108,-12.42512 0.0278,-24.85024 0.0489,-37.27537 -6.14329,-0.0258 -12.12122,0.30373 -18.24219,0.8789 -2.75781,0.1211 -2.75781,0.1211 -4.75781,-0.8789 0.33,-5.61 0.66,-11.22 1,-17 z"
     fill="#060808"
     id="path12" />
  <path
     d="m 980.13501,190.24685 c 1.46203,0.006 1.46203,0.006 2.95361,0.012 0.7346,0.005 1.46921,0.0101 2.22607,0.0154 0.0756,26.52013 -0.11877,53.03069 -0.46356,79.54846 -0.0621,4.81586 -0.12138,9.63175 -0.18097,14.44764 -0.11588,9.33467 -0.23465,18.6693 -0.35547,28.0039 -4.06949,2.2881 -7.68109,2.22994 -12.25,2.125 -0.74508,-0.009 -1.49015,-0.018 -2.25781,-0.0273 -1.83087,-0.0235 -3.66157,-0.0593 -5.49219,-0.0977 -0.72356,-3.25376 -1.12535,-6.26491 -1.12698,-9.59611 -0.003,-0.89274 -0.006,-1.78547 -0.009,-2.70526 0.002,-0.96684 0.004,-1.93369 0.006,-2.92983 -0.002,-1.0283 -0.003,-2.0566 -0.005,-3.11606 -0.004,-3.39858 -0.002,-6.79712 0.002,-10.19571 -6.7e-4,-2.36786 -0.002,-4.73572 -0.003,-7.10359 -0.001,-4.96556 6.7e-4,-9.9311 0.005,-14.89665 0.006,-6.34713 0.002,-12.69421 -0.004,-19.04133 -0.004,-4.89264 -0.002,-9.78527 1.3e-4,-14.6779 6.6e-4,-2.33904 -1.5e-4,-4.67808 -0.002,-7.01712 -0.003,-3.28078 0.001,-6.56149 0.007,-9.84226 -0.002,-0.95672 -0.004,-1.91345 -0.006,-2.89916 0.0525,-16.89603 0.0525,-16.89603 2.13553,-18.97902 4.98165,-0.72314 9.78726,-1.05391 14.82034,-1.02734 z"
     fill="#040605"
     id="path13" />
  <path
     d="m 354.31471,279.27419 c 2.94047,1.25137 5.63508,2.86227 8.375,4.5 1.59851,0.92489 3.19881,1.84671 4.80078,2.76562 0.80389,0.46213 1.60778,0.92426 2.43603,1.40039 3.58322,2.00151 7.25804,3.79507 10.95069,5.58399 5.79647,2.83463 11.23835,5.91845 16.4375,9.75 0.73734,0.50918 1.47468,1.01836 2.23437,1.54297 0.87398,0.72123 0.87398,0.72123 1.76563,1.45703 0,0.66 0,1.32 0,2 0.99,0.33 1.98,0.66 3,1 1.57031,1.99609 1.57031,1.99609 3.125,4.4375 0.7773,1.20463 0.7773,1.20463 1.57031,2.43359 2.41586,3.94206 2.78119,6.44328 2.30469,11.12891 -2.54138,3.15954 -4.14623,4.71541 -8,6 -14.59415,1.02415 -26.80192,-6.60862 -37.56641,-15.78516 -5.69142,-5.17983 -9.65399,-10.89373 -13.6875,-17.43359 -2.09387,-3.33519 -4.36213,-6.52807 -6.67969,-9.71094 -1.31627,-2.55539 -1.37777,-4.23089 -1.0664,-7.07031 2.9177,-4.15212 5.08251,-4.56346 10,-4 z"
     fill="#fcfcfc"
     id="path14" />
  <path
     d="m 293.18971,279.46169 c 2.72178,1.04068 4.12852,2.72831 6.125,4.8125 -9.33846,18.168 -17.40069,32.16581 -35.73047,42.20312 -2.0288,1.11499 -4.04083,2.26185 -6.02344,3.45703 -5.49939,3.28051 -10.95642,4.08379 -17.24609,3.33985 -3.49551,-1.35937 -6.92831,-2.77737 -9,-6 -0.62124,-4.61489 -0.10737,-8.02236 2.41796,-11.98438 10.73169,-13.67295 24.01471,-21.03844 39.58204,-27.89062 1.52777,-0.68132 3.05512,-1.36361 4.58203,-2.04688 2.77081,-1.23893 5.54413,-2.47187 8.32031,-3.69873 5.29827,-2.35933 5.29827,-2.35933 6.97266,-2.19189 z"
     fill="#fcfdfd"
     id="path15" />
  <path
     d="m 238.12721,235.02419 c 3.07666,2.17176 3.78029,2.98254 5.1875,6.25 0.66,0 1.32,0 2,0 4.18415,5.06453 8.26638,10.74497 7.6914,17.54687 -1.58162,5.61164 -4.65055,10.5244 -7.6914,15.45313 -0.47438,0.77601 -0.94875,1.55203 -1.4375,2.35156 -2.90872,4.41762 -2.90872,4.41762 -5.41089,5.30103 -4.13957,0.6684 -8.27866,0.70137 -12.46411,0.78491 -0.92491,0.0458 -1.84981,0.0915 -2.80274,0.13867 -6.08217,0.0994 -9.30389,-0.84656 -13.72925,-5.08374 -1.15551,-1.49243 -1.15551,-1.49243 -1.15551,-3.49243 -0.66,0 -1.32,0 -2,0 -8.31221,-13.41146 -8.31221,-13.41146 -6.90235,-19.75 3.30105,-8.23119 8.59133,-15.19587 15.90235,-20.25 6.72859,-2.24287 16.31459,-2.30714 22.8125,0.75 z m -19.8125,9.25 c -1.23115,2.21905 -2.43421,4.44693 -3.625,6.6875 -0.35063,0.62584 -0.70125,1.25168 -1.0625,1.89648 -2.03322,3.8757 -2.03322,3.8757 -1.6211,8.10352 0.43184,0.76312 0.86367,1.52625 1.3086,2.3125 0.22816,0.73863 0.45632,1.47726 0.6914,2.23828 1.1373,2.70809 1.9176,3.99427 4.3086,5.76172 5.57745,1.04972 11.38262,0.44592 17,0 1.04063,-1.86409 2.05677,-3.74185 3.0625,-5.625 0.56847,-1.04414 1.13695,-2.08828 1.72265,-3.16406 1.38675,-3.66531 1.25705,-5.47901 0.21485,-9.21094 -1.3725,-2.67677 -1.3725,-2.67677 -3,-5 -0.66,-0.99 -1.32,-1.98 -2,-3 -3.75051,-1.14946 -7.41327,-1.10535 -11.3125,-1.0625 -1.06864,0.009 -2.13727,0.018 -3.23829,0.0273 -0.80824,0.0116 -1.61648,0.0232 -2.44921,0.0352 z"
     fill="#0b0d0c"
     id="path16" />
  <path
     d="m 1076.3147,191.27419 c 17.49,0 34.98,0 53,0 0.66,1.32 1.32,2.64 2,4 -0.99,-0.33 -1.98,-0.66 -3,-1 -1.6361,-0.0923 -3.2758,-0.12791 -4.9145,-0.1294 -0.9976,-0.003 -1.9952,-0.006 -3.023,-0.01 -1.0751,0.002 -2.1502,0.004 -3.2578,0.006 -1.6548,-0.001 -1.6548,-0.001 -3.343,-0.003 -2.3318,-6.8e-4 -4.6636,0.001 -6.9954,0.005 -3.5839,0.005 -7.1676,5e-5 -10.7515,-0.006 -2.2617,6.6e-4 -4.5234,0.002 -6.7851,0.004 -1.0791,-0.002 -2.1582,-0.004 -3.2701,-0.006 -0.9912,0.003 -1.9825,0.006 -3.0038,0.01 -0.877,8e-4 -1.754,0.002 -2.6575,0.002 -1.9976,-0.094 -1.9976,-0.094 -2.9983,1.12699 -0.1076,1.42901 -0.1468,2.86326 -0.1582,4.29628 -0.01,0.92693 -0.02,1.85386 -0.03,2.80888 -0.01,1.02499 -0.012,2.04997 -0.017,3.10602 -0.01,1.07304 -0.02,2.14608 -0.03,3.25163 -0.032,3.56576 -0.056,7.13153 -0.081,10.69734 -0.021,2.46481 -0.042,4.9296 -0.063,7.3944 -0.055,6.50195 -0.1047,13.00393 -0.1528,19.50593 -0.05,6.62896 -0.1059,13.25787 -0.1612,19.88678 -0.1077,13.01754 -0.2093,26.03512 -0.3066,39.05274 -0.33,0 -0.66,0 -1,0 -0.023,-14.42079 -0.041,-28.84157 -0.052,-43.26237 -0.01,-6.69567 -0.012,-13.39133 -0.024,-20.087 -0.011,-6.45793 -0.017,-12.91585 -0.019,-19.3738 -0,-2.46763 -0.01,-4.93526 -0.011,-7.40289 -0.01,-3.44799 -0.01,-6.89592 -0.01,-10.34391 -0,-1.02715 -0.01,-2.05429 -0.011,-3.11257 0,-0.93809 0,-1.87619 0,-2.84271 -10e-4,-0.81579 -0,-1.63157 -0,-2.47208 0.123,-2.10267 0.123,-2.10267 1.123,-5.10267 z"
     fill="#738581"
     id="path17" />
  <path
     d="m 287.31471,458.27419 c 0.66,0 1.32,0 2,0 0.0198,0.94843 0.0396,1.89685 0.06,2.87402 0.0782,3.5263 0.1649,7.05218 0.25733,10.57813 0.0382,1.52466 0.0731,3.0494 0.10449,4.57422 0.0458,2.19465 0.10375,4.3887 0.16406,6.583 0.0173,1.01898 0.0173,1.01898 0.035,2.05854 0.1114,3.59046 0.43864,6.26827 2.37906,9.33209 -0.99,0 -1.98,0 -3,0 -2.39955,-3.73632 -2.22994,-7.02796 -2.19532,-11.39063 0.003,-0.70461 0.006,-1.40922 0.009,-2.13519 0.0112,-2.24157 0.0362,-4.48273 0.0617,-6.72418 0.01,-1.52343 0.0192,-3.04687 0.0273,-4.57031 0.022,-3.7267 0.0565,-7.45316 0.0977,-11.17969 z"
     fill="#2d372f"
     id="path18" />
  <path
     d="m 376.31471,433.27419 c 0.33,0.99 0.66,1.98 1,3 -1.21563,0.90432 -1.21563,0.90432 -2.45582,1.8269 -3.89238,3.92397 -3.27171,8.71881 -3.25122,13.94263 -0.0151,1.03614 -0.0302,2.07228 -0.0458,3.13982 -0.0429,3.30127 -0.0517,6.60163 -0.0596,9.90315 -0.0231,2.24156 -0.0485,4.4831 -0.0762,6.72461 -0.0629,5.48764 -0.0978,10.97492 -0.11132,16.46289 -0.66,0 -1.32,0 -2,0 -0.0761,-6.45948 -0.12864,-12.91884 -0.1648,-19.37866 -0.0151,-2.19699 -0.0355,-4.39394 -0.0615,-6.59082 -0.0364,-3.15999 -0.0534,-6.31958 -0.0666,-9.47974 -0.0232,-1.47058 -0.0232,-1.47058 -0.0469,-2.97087 -0.002,-6.58167 0.91749,-10.0191 5.52739,-14.89241 0.59812,-0.55688 1.19625,-1.11375 1.8125,-1.6875 z"
     fill="#0d0f2d"
     id="path19" />
  <path
     d="m 554.31471,191.27419 c -2.91825,1.66674 -4.97595,2.2432 -8.32813,2.19531 -0.79922,-0.006 -1.59844,-0.0129 -2.42187,-0.0195 -0.825,-0.0168 -1.65,-0.0335 -2.5,-0.0508 -0.84047,-0.009 -1.68094,-0.0181 -2.54688,-0.0274 -2.06783,-0.0235 -4.13551,-0.0594 -6.20312,-0.0976 0,-0.66 0,-1.32 0,-2 -6.17967,1.172 -9.43967,2.66768 -14,7 0.33,-1.98 0.66,-3.96 1,-6 10.42164,-4.50666 23.92112,-1.68253 35,-1 z"
     fill="#1b342f"
     id="path20" />
  <path
     d="m 265.31471,432.27419 c 0.33,0.66 0.66,1.32 1,2 -1.08282,0.58781 -1.08282,0.58781 -2.1875,1.1875 -4.48287,2.88896 -7.33922,5.21365 -8.88672,10.4414 -0.20239,1.29809 -0.40477,2.59618 -0.61328,3.9336 -1.30547,8.08105 -1.30547,8.08105 -3.3125,11.4375 -0.66,0 -1.32,0 -2,0 0.31066,-0.85465 0.62132,-1.7093 0.9414,-2.58985 1.36314,-4.3912 1.84609,-8.73619 2.39844,-13.28906 1.02738,-4.85727 2.7023,-7.4027 6.66016,-10.37109 3,-1.75 3,-1.75 6,-2.75 z"
     fill="#2c342c"
     id="path21" />
  <path
     d="m 288.31471,245.27419 c 1.88414,3.19457 2.23819,5.51502 2.19531,9.20312 -0.006,0.97969 -0.0129,1.95938 -0.0195,2.96875 -0.0168,1.01578 -0.0335,2.03157 -0.0508,3.07813 -0.009,1.03125 -0.0181,2.0625 -0.0274,3.125 -0.0235,2.5419 -0.0564,5.08333 -0.0976,7.625 -1.65,0.66 -3.3,1.32 -5,2 -0.66,-0.66 -1.32,-1.32 -2,-2 1.65,-0.33 3.3,-0.66 5,-1 -0.16758,-0.71543 -0.33516,-1.43086 -0.50782,-2.16797 -1.65136,-8.07911 -1.17825,-14.79079 0.50782,-22.83203 z"
     fill="#42452b"
     id="path22" />
  <path
     d="m 289.31471,341.27419 c 4.73124,1.83993 4.73124,1.83993 6.77734,3.05859 6.44556,2.73002 15.44674,1.20204 22.22266,-0.0586 -3.79841,3.7984 -8.02259,4.34848 -13.25,4.5 -6.63574,-0.0679 -10.91415,-1.98904 -15.75,-6.5 0,-0.33 0,-0.66 0,-1 z"
     fill="#28322d"
     id="path23" />
  <path
     d="m 400.31471,434.27419 c 2.29732,3.44599 3.11869,5.13126 3.28125,9.17578 0.0374,0.82822 0.0748,1.65645 0.11328,2.50977 0.0348,0.86689 0.0696,1.73378 0.10547,2.62695 0.25055,7.40268 0.25055,7.40268 1.5,14.6875 -0.66,0 -1.32,0 -2,0 -1.67471,-4.36081 -2.20114,-7.84176 -2.0625,-12.5 0.11887,-4.3415 -0.18042,-8.22747 -0.9375,-12.5 0,-1.32 0,-2.64 0,-4 z"
     fill="#212d2b"
     id="path24" />
  <path
     d="m 191.31471,220.27419 c 0.99,0.33 1.98,0.66 3,1 -0.66,0 -1.32,0 -2,0 0,0.66 0,1.32 0,2 -0.88688,0.55687 -1.77375,1.11375 -2.6875,1.6875 -4.63993,2.92469 -7.59095,7.14784 -9.3125,12.3125 -0.66,0 -1.32,0 -2,0 1.28355,-6.25731 5.3254,-10.83452 10,-15 0.99,0 1.98,0 3,0 0,-0.66 0,-1.32 0,-2 z"
     fill="#353b2b"
     id="path25" />
  <path
     d="m 335.31471,395.27419 c -3.0881,1.76462 -4.23313,2 -8,2 0,0.99 0,1.98 0,3 0.99,0.33 1.98,0.66 3,1 -0.66,0 -1.32,0 -2,0 0.0619,1.42312 0.0619,1.42312 0.125,2.875 -0.125,3.125 -0.125,3.125 -2.125,5.125 -1.447,-9.48587 -1.447,-9.48587 0,-13 3.28196,-1.95144 5.41617,-2.32734 9,-1 z"
     fill="#383f2d"
     id="path26" />
  <path
     d="m 967.16241,191.17653 c 2.05078,0.0325 4.10156,0.0651 6.15234,0.0976 -3.625,3 -3.625,3 -7,3 0,2.64 0,5.28 0,8 -0.66,0 -1.32,0 -2,0 -0.0269,-1.64574 -0.0463,-3.29161 -0.0625,-4.9375 -0.0116,-0.91652 -0.0232,-1.83304 -0.0352,-2.77734 0.11913,-2.7875 0.15316,-3.23523 2.94532,-3.38281 z"
     fill="#273c38"
     id="path27" />
  <path
     d="m 239.31471,293.27419 c 0.66,0.33 1.32,0.66 2,1 -4.62,4.62 -9.24,9.24 -14,14 0,-3.52835 0.51828,-3.93117 2.8125,-6.4375 1.75104,-1.94424 3.35666,-3.80059 4.875,-5.9375 1.3125,-1.625 1.3125,-1.625 4.3125,-2.625 z"
     fill="#242d26"
     id="path28" />
  <path
     d="m 536.31471,190.27419 c 0,0.33 0,0.66 0,1 -0.62907,0.003 -1.25813,0.005 -1.90625,0.008 -7.02879,0.31757 -10.92944,2.27506 -16.09375,6.99219 0.33,-1.98 0.66,-3.96 1,-6 5.64399,-2.44065 10.97751,-2.19289 17,-2 z"
     fill="#334542"
     id="path29" />
  <path
     d="m 215.31471,435.27419 c 0.33,0 0.66,0 1,0 1.125,5.625 1.125,5.625 0,9 -0.14633,4.53604 -0.10637,8.57454 1,13 -0.66,0 -1.32,0 -2,0 -1.45748,-2.91496 -1.13185,-5.50462 -1.125,-8.75 -0.003,-1.21172 -0.005,-2.42344 -0.008,-3.67188 0.12203,-3.28787 0.50939,-6.35219 1.13281,-9.57812 z"
     fill="#42462d"
     id="path30" />
  <path
     d="m 445.31471,422.27419 c 0.33,0 0.66,0 1,0 0,6.93 0,13.86 0,21 -0.66,-0.33 -1.32,-0.66 -2,-1 -0.44922,-1.8125 -0.44922,-1.8125 -0.6875,-4 -0.0864,-0.72188 -0.17274,-1.44375 -0.26172,-2.1875 -0.0168,-0.59813 -0.0335,-1.19625 -0.0508,-1.8125 0.33,-0.33 0.66,-0.66 1,-1 0.23363,-1.84892 0.41303,-3.70488 0.5625,-5.5625 0.0838,-1.01192 0.16757,-2.02383 0.2539,-3.06641 0.0606,-0.78246 0.12117,-1.56492 0.1836,-2.37109 z"
     fill="#455754"
     id="path31" />
  <path
     d="m 265.31471,432.27419 c 0.33,0.66 0.66,1.32 1,2 -0.70125,0.39187 -1.4025,0.78375 -2.125,1.1875 -3.23575,2.03992 -5.97758,4.31937 -8.875,6.8125 0.125,-2.25 0.125,-2.25 1,-5 2.9556,-2.31308 5.44065,-3.81355 9,-5 z"
     fill="#172123"
     id="path32" />
  <path
     d="m 376.31471,433.27419 c 0.33,0.99 0.66,1.98 1,3 -0.80438,0.76312 -1.60875,1.52625 -2.4375,2.3125 -2.7305,2.48181 -2.7305,2.48181 -3.5625,5.6875 -0.66,0 -1.32,0 -2,0 1.27721,-4.99275 3.1733,-7.57612 7,-11 z"
     fill="#2c2e24"
     id="path33" />
  <path
     d="m 1122.3147,206.27419 c 0.66,0.99 1.32,1.98 2,3 -3.96,0 -7.92,0 -12,0 0,-0.66 0,-1.32 0,-2 3.3871,-0.77419 6.5266,-1.3755 10,-1 z"
     fill="#253b37"
     id="path34" />
  <path
     d="m 893.31471,190.27419 c -0.95118,1.17251 -1.91118,2.33787 -2.875,3.5 -0.53368,0.64969 -1.06735,1.29937 -1.61719,1.96875 -0.49758,0.50531 -0.99516,1.01062 -1.50781,1.53125 -0.66,0 -1.32,0 -2,0 0.375,-2.9375 0.375,-2.9375 1,-6 2.46278,-1.2314 4.2795,-1.07159 7,-1 z"
     fill="#394845"
     id="path35" />
  <path
     d="m 431.31471,456.27419 c 0.33,0 0.66,0 1,0 -0.41475,5.28798 -1.35225,8.11691 -5,12 -0.99,-0.33 -1.98,-0.66 -3,-1 0.99,-0.33 1.98,-0.66 3,-1 1.93968,-3.08067 2.90139,-6.54724 4,-10 z"
     fill="#242e2d"
     id="path36" />
  <path
     d="m 316.31471,108.27419 c -2.52476,1.26238 -4.31201,1.09856 -7.125,1.0625 -0.91008,-0.009 -1.82016,-0.0181 -2.75782,-0.0273 -0.69867,-0.0116 -1.39734,-0.0232 -2.11718,-0.0352 0,-0.66 0,-1.32 0,-2 1.43534,-0.22268 2.87345,-0.42762 4.3125,-0.625 1.20076,-0.17403 1.20076,-0.17403 2.42578,-0.35156 2.26172,-0.0234 2.26172,-0.0234 5.26172,1.97656 z"
     fill="#222f2d"
     id="path37" />
  <path
     d="m 351.31471,510.27419 c 3.63,0.66 7.26,1.32 11,2 0,0.33 0,0.66 0,1 -3.96,0 -7.92,0 -12,0 0.33,-0.99 0.66,-1.98 1,-3 z"
     fill="#354844"
     id="path38" />
  <path
     d="m 643.31471,265.27419 c 0.33,0 0.66,0 1,0 0.66,3.96 1.32,7.92 2,12 -0.66,0 -1.32,0 -2,0 -2.27679,-8.03572 -2.27679,-8.03572 -1,-12 z"
     fill="#2b3e3b"
     id="path39" />
  <path
     d="m 1200.3147,264.27419 c 0.33,0 0.66,0 1,0 0.33,3.96 0.66,7.92 1,12 -0.66,0 -1.32,0 -2,0 -0.1957,-1.4364 -0.3813,-2.8742 -0.5625,-4.3125 -0.1044,-0.80051 -0.2088,-1.60102 -0.3164,-2.42578 -0.1211,-2.26172 -0.1211,-2.26172 0.8789,-5.26172 z"
     fill="#354844"
     id="path40" />
  <path
     d="m 341.31471,366.27419 c 0,0.66 0,1.32 0,2 -4.12169,1.6295 -6.70701,2.26264 -11,1 0,-0.33 0,-0.66 0,-1 1.45773,-0.33594 2.91621,-0.66867 4.375,-1 1.21816,-0.27844 1.21816,-0.27844 2.46093,-0.5625 2.16407,-0.4375 2.16407,-0.4375 4.16407,-0.4375 z"
     fill="#383b27"
     id="path41" />
  <path
     d="m 643.31471,253.27419 c 0.66,0.66 1.32,1.32 2,2 -0.66,0.66 -1.32,1.32 -2,2 -0.16678,3.58344 -0.16678,3.58344 0,7 -1.5625,-1.6875 -1.5625,-1.6875 -3,-4 0.24074,-3.37036 0.58798,-4.58798 3,-7 z"
     fill="#384b47"
     id="path42" />
  <path
     d="m 239.31471,251.27419 c 0.66,0 1.32,0 2,0 1.61949,2.57213 2.04408,3.67669 1.625,6.75 -0.20625,0.7425 -0.4125,1.485 -0.625,2.25 -0.66,-0.33 -1.32,-0.66 -2,-1 -0.59356,-2.64861 -0.7421,-5.29198 -1,-8 z"
     fill="#353d2a"
     id="path43" />
  <path
     d="m 573.31471,251.27419 c 0.66,0.33 1.32,0.66 2,1 -1.61595,2.0412 -3.28564,4.04073 -5,6 -0.66,0 -1.32,0 -2,0 1.29299,-2.88438 2.65941,-4.8722 5,-7 z"
     fill="#3d4b48"
     id="path44" />
  <path
     d="m 289.31471,358.27419 c 3.51005,1.63802 6.45543,3.03134 9,6 -3.78787,-0.52609 -6.17153,-1.38104 -9,-4 0,-0.66 0,-1.32 0,-2 z"
     fill="#39402c"
     id="path45" />
  <path
     d="m 1027.3147,262.27419 c 0.33,0 0.66,0 1,0 0.33,2.97 0.66,5.94 1,9 -0.99,0.495 -0.99,0.495 -2,1 -1.125,-6.625 -1.125,-6.625 0,-10 z"
     fill="#3d4c4a"
     id="path46" />
  <path
     d="m 343.31471,231.27419 c 3.75376,1.25125 4.24073,2.56524 6,6 0,0.66 0,1.32 0,2 -0.66,0 -1.32,0 -2,0 -4,-4.35294 -4,-4.35294 -4,-8 z"
     fill="#474b2c"
     id="path47" />
  <path
     d="m 999.31471,217.27419 c 0.66,0 1.31999,0 1.99999,0 1.25,6.625 1.25,6.625 -1,10 -0.32999,-3.3 -0.65999,-6.6 -0.99999,-10 z"
     fill="#374c48"
     id="path48" />
  <path
     d="m 273.31471,207.27419 c 1.32,0.66 2.64,1.32 4,2 -0.78375,0.0825 -1.5675,0.165 -2.375,0.25 -2.7725,0.47806 -2.7725,0.47806 -3.9375,2.8125 -0.22688,0.63937 -0.45375,1.27875 -0.6875,1.9375 -0.33,-1.32 -0.66,-2.64 -1,-4 1.32,-0.99 2.64,-1.98 4,-3 z"
     fill="#3e3e2d"
     id="path49" />
  <path
     d="m 300.31471,496.27419 c 1.65,0 3.3,0 5,0 0,0.33 0,0.66 0,1 -1.65,0 -3.3,0 -5,0 0,-0.33 0,-0.66 0,-1 z"
     fill="#eaa92c"
     id="path50" />
  <path
     d="m 244.31471,67.274188 c 1.65,0 3.3,0 5,0 0,0.33 0,0.66 0,1 -1.65,0 -3.3,0 -5,0 0,-0.33 0,-0.66 0,-1 z"
     fill="#f1aa2c"
     id="path51" />
  <path
     d="m 1231.3147,67.274188 c 3,1 3,1 3,1 z"
     fill="#f1aa2f"
     id="path52" />
  <path
     d="m 1087.3147,67.274188 c 3,1 3,1 3,1 z"
     fill="#f0ab2b"
     id="path53" />
  <path
     d="m 478.31471,67.274188 c 3,1 3,1 3,1 z"
     fill="#efa92d"
     id="path54" />
  <path
     d="m 233.31471,468.27419 c 2,1 2,1 2,1 z"
     fill="#e5b22b"
     id="path55" />
  <path
     d=""
     fill="#f0aa2b"
     id="path56" />
  <path
     d="m 1099.3147,67.274188 c 2,1 2,1 2,1 z"
     fill="#ecab2b"
     id="path57" />
  <path
     d="m 1023.3147,67.274188 c 2,1 2,1 2,1 z"
     fill="#eeaa2f"
     id="path58" />
  <path
     d="m 1020.3147,67.274188 c 2,1 2,1 2,1 z"
     fill="#eba82e"
     id="path59" />
  <path
     d="m 956.31471,67.274188 c 2,1 2,1 2,1 z"
     fill="#edab2c"
     id="path60" />
  <path
     d="m 856.31471,67.274188 c 2,1 2,1 2,1 z"
     fill="#f0ab2d"
     id="path61" />
  <path
     d="m 814.31471,67.274188 c 2,1 2,1 2,1 z"
     fill="#efab2e"
     id="path62" />
  <path
     d="m 803.31471,67.274188 c 2,1 2,1 2,1 z"
     fill="#f0ab2b"
     id="path63" />
  <path
     d="m 783.31471,67.274188 c 2,1 2,1 2,1 z"
     fill="#f3aa2e"
     id="path64" />
  <path
     d="m 739.31471,67.274188 c 2,1 2,1 2,1 z"
     fill="#eeaa2e"
     id="path65" />
  <path
     d="m 583.31471,67.274188 c 2,1 2,1 2,1 z"
     fill="#eeab2b"
     id="path66" />
  <path
     d="m 559.31471,67.274188 c 2,1 2,1 2,1 z"
     fill="#efab2f"
     id="path67" />
  <path
     d="m 509.31471,67.274188 c 2,1 2,1 2,1 z"
     fill="#f0ab2d"
     id="path68" />
  <path
     d="m 454.31471,67.274188 c 2,1 2,1 2,1 z"
     fill="#f0aa2d"
     id="path69" />
  <path
     d="m 230.31471,67.274188 c 2,1 2,1 2,1 z"
     fill="#eeaa2d"
     id="path70" />
  <path
     d=""
     fill="#edf4f1"
     id="path71" />
  <path
     d=""
     fill="#fdec31"
     id="path72" />
  <path
     d=""
     fill="#e6ae2c"
     id="path73" />
  <path
     d=""
     fill="#e8ab29"
     id="path74" />
  <path
     d=""
     fill="#e5ac2a"
     id="path75" />
  <path
     d=""
     fill="#e4ba2d"
     id="path76" />
  <path
     d=""
     fill="#e5b230"
     id="path77" />
  <path
     d=""
     fill="#e4ae2b"
     id="path78" />
  <path
     d=""
     fill="#e7ab30"
     id="path79" />
  <path
     d=""
     fill="#e6b932"
     id="path80" />
  <path
     d=""
     fill="#e6ae33"
     id="path81" />
  <path
     d=""
     fill="#ebfef9"
     id="path82" />
  <path
     d=""
     fill="#eeaa2b"
     id="path83" />
  <path
     d=""
     fill="#f0a92f"
     id="path84" />
  <path
     d=""
     fill="#e6ba2f"
     id="path85" />
  <path
     d=""
     fill="#e6b334"
     id="path86" />
  <path
     d=""
     fill="#f0a929"
     id="path87" />
  <path
     d=""
     fill="#f2ab2a"
     id="path88" />
  <path
     d=""
     fill="#ecaa2c"
     id="path89" />
  <path
     d=""
     fill="#ffe330"
     id="path90" />
  <path
     d=""
     fill="#ebaa2b"
     id="path91" />
  <path
     d=""
     fill="#fee733"
     id="path92" />
  <path
     d=""
     fill="#e2b22c"
     id="path93" />
  <path
     d=""
     fill="#e8a72b"
     id="path94" />
  <path
     d=""
     fill="#eeab2d"
     id="path95" />
  <path
     d=""
     fill="#edab2f"
     id="path96" />
  <path
     d=""
     fill="#efab2d"
     id="path97" />
  <path
     d=""
     fill="#efab2c"
     id="path98" />
  <path
     d=""
     fill="#ecab2c"
     id="path99" />
  <path
     d=""
     fill="#edab2c"
     id="path100" />
  <path
     d=""
     fill="#edaa2a"
     id="path101" />
  <path
     d=""
     fill="#f1ab2d"
     id="path102" />
  <path
     d=""
     fill="#edab2e"
     id="path103" />
  <path
     d=""
     fill="#efab2e"
     id="path104" />
  <path
     d=""
     fill="#eeab2b"
     id="path105" />
  <path
     d=""
     fill="#edab2e"
     id="path106" />
  <path
     d=""
     fill="#f1aa2b"
     id="path107" />
  <path
     d=""
     fill="#efab2a"
     id="path108" />
  <path
     d=""
     fill="#efab2c"
     id="path109" />
  <path
     d=""
     fill="#f0ab30"
     id="path110" />
  <path
     d=""
     fill="#eeab2c"
     id="path111" />
  <path
     d=""
     fill="#f4ab2d"
     id="path112" />
  <path
     d=""
     fill="#edab2d"
     id="path113" />
  <path
     d=""
     fill="#eda92b"
     id="path114" />
  <path
     d=""
     fill="#edab2e"
     id="path115" />
  <path
     d=""
     fill="#ebab30"
     id="path116" />
  <path
     d=""
     fill="#edab2b"
     id="path117" />
  <path
     d=""
     fill="#efab2e"
     id="path118" />
  <path
     d=""
     fill="#eeab29"
     id="path119" />
  <path
     d=""
     fill="#f2ab31"
     id="path120" />
  <path
     d=""
     fill="#f0ab2f"
     id="path121" />
  <path
     d=""
     fill="#efab31"
     id="path122" />
  <path
     d=""
     fill="#edaa2f"
     id="path123" />
  <path
     d=""
     fill="#f1aa2d"
     id="path124" />
  <path
     d=""
     fill="#efab2d"
     id="path125" />
  <path
     d=""
     fill="#f0aa2e"
     id="path126" />
  <path
     d=""
     fill="#f1aa2e"
     id="path127" />
  <path
     d=""
     fill="#eaab2d"
     id="path128" />
  <path
     d=""
     fill="#ebab2d"
     id="path129" />
  <path
     d=""
     fill="#edab2f"
     id="path130" />
  <path
     d=""
     fill="#f0ab30"
     id="path131" />
  <path
     d=""
     fill="#efab2c"
     id="path132" />
  <path
     d=""
     fill="#f1ab2d"
     id="path133" />
  <path
     d=""
     fill="#efaa2f"
     id="path134" />
  <path
     d=""
     fill="#f3ab2f"
     id="path135" />
  <path
     d=""
     fill="#f0aa2e"
     id="path136" />
  <path
     d=""
     fill="#eaab2b"
     id="path137" />
  <path
     d=""
     fill="#ebab2e"
     id="path138" />
  <path
     d=""
     fill="#ebaa2a"
     id="path139" />
  <path
     d=""
     fill="#ebab2f"
     id="path140" />
  <path
     d=""
     fill="#f1ab2f"
     id="path141" />
  <path
     d=""
     fill="#f2ab2f"
     id="path142" />
  <path
     d=""
     fill="#e5a928"
     id="path143" />
  <path
     d=""
     fill="#e6b232"
     id="path144" />
  <path
     d=""
     fill="#e5b12d"
     id="path145" />
  <path
     d=""
     fill="#e4a128"
     id="path146" />
  <path
     d=""
     fill="#ebaa31"
     id="path147" />
</svg>
